<svg xmlns="http://www.w3.org/2000/svg" xmlns:xlink="http://www.w3.org/1999/xlink" width="26.541" height="13.799" viewBox="0 0 26.541 13.799">
  <defs>
    <clipPath id="clip-path">
      <rect id="Rectangle_3263" data-name="Rectangle 3263" width="26.541" height="13.799" fill="#a1a1a1"/>
    </clipPath>
  </defs>
  <g id="Group_75825" data-name="Group 75825" transform="translate(0 0)">
    <g id="Group_75824" data-name="Group 75824" transform="translate(0 0)" clip-path="url(#clip-path)">
      <path id="Path_3456" data-name="Path 3456" d="M25.28,6.781l-.854-.573L23.417,4.1a2.805,2.805,0,0,0-2.28-1.472H18.81V1.556A1.557,1.557,0,0,0,17.254,0H6.492a.641.641,0,1,0,0,1.283H17.254a.273.273,0,0,1,.274.273v5.12l-6.239,0a.641.641,0,1,0,0,1.283l6.239,0V9.11a.641.641,0,0,0,1.283,0v-5.2h2.276a1.536,1.536,0,0,1,.9.407,1.407,1.407,0,0,1,.268.337l1.087,2.267a.65.65,0,0,0,.22.253l1,.667a.962.962,0,0,1,.337.532l.039.662v1.4a.273.273,0,0,1-.274.273H23.537a2.445,2.445,0,0,0-4.717,0H12.429a2.445,2.445,0,0,0-4.717,0H6.492a.272.272,0,0,1-.273-.273V9.028a.642.642,0,0,0-1.284,0v1.414A1.559,1.559,0,0,0,6.492,12h1.22a2.445,2.445,0,0,0,4.717,0H18.82a2.445,2.445,0,0,0,4.717,0h1.131a1.559,1.559,0,0,0,1.554-1.556V8.725a2.333,2.333,0,0,0-.942-1.944m-2.94,4.575a1.161,1.161,0,1,1-1.161-1.16,1.161,1.161,0,0,1,1.161,1.16m-11.108,0a1.16,1.16,0,1,1-1.16-1.16,1.161,1.161,0,0,1,1.16,1.16" transform="translate(0.318 0)" fill="#a1a1a1"/>
      <path id="Path_3457" data-name="Path 3457" d="M2.692,3.312h.757a.642.642,0,0,0,0-1.284H2.692a.642.642,0,1,0,0,1.284" transform="translate(0.132 0.131)" fill="#a1a1a1"/>
      <path id="Path_3458" data-name="Path 3458" d="M4.019,1.284h.756A.642.642,0,1,0,4.775,0H4.019a.642.642,0,1,0,0,1.284" transform="translate(0.218 0)" fill="#a1a1a1"/>
      <path id="Path_3459" data-name="Path 3459" d="M10.219,2.67a.643.643,0,0,0-.642-.642H5.153a.642.642,0,0,0,0,1.284H9.577a.643.643,0,0,0,.642-.642" transform="translate(0.291 0.131)" fill="#a1a1a1"/>
      <path id="Path_3460" data-name="Path 3460" d="M3.944,4.916A.643.643,0,0,0,3.3,4.274H2.72a.642.642,0,0,0,0,1.284H3.3a.643.643,0,0,0,.642-.642" transform="translate(0.134 0.276)" fill="#a1a1a1"/>
      <path id="Path_3461" data-name="Path 3461" d="M1.283,4.274H.642a.642.642,0,1,0,0,1.284h.641a.642.642,0,1,0,0-1.284" transform="translate(0 0.276)" fill="#a1a1a1"/>
      <path id="Path_3462" data-name="Path 3462" d="M4.852,4.274a.642.642,0,1,0,0,1.284H7.558a.642.642,0,1,0,0-1.284Z" transform="translate(0.272 0.276)" fill="#a1a1a1"/>
      <path id="Path_3463" data-name="Path 3463" d="M7.712,6.913a.643.643,0,0,0-.642-.642H3.636a.642.642,0,0,0,0,1.284H7.07a.643.643,0,0,0,.642-.642" transform="translate(0.193 0.405)" fill="#a1a1a1"/>
      <path id="Path_3464" data-name="Path 3464" d="M8.666,6.271a.642.642,0,0,0,0,1.284h.408a.642.642,0,0,0,0-1.284Z" transform="translate(0.518 0.405)" fill="#a1a1a1"/>
    </g>
  </g>
</svg>
