<svg width="20" height="21" viewBox="0 0 20 21" fill="none" xmlns="http://www.w3.org/2000/svg">
<g clip-path="url(#clip0_743_672)">
<path d="M1.25 18.625C1.25 19.6602 2.08984 20.5 3.125 20.5H16.875C17.9102 20.5 18.75 19.6602 18.75 18.625V8H1.25V18.625ZM3.75 11.125C3.75 10.7812 4.03125 10.5 4.375 10.5H8.125C8.46875 10.5 8.75 10.7812 8.75 11.125V14.875C8.75 15.2188 8.46875 15.5 8.125 15.5H4.375C4.03125 15.5 3.75 15.2188 3.75 14.875V11.125ZM16.875 3H15V1.125C15 0.78125 14.7188 0.5 14.375 0.5H13.125C12.7812 0.5 12.5 0.78125 12.5 1.125V3H7.5V1.125C7.5 0.78125 7.21875 0.5 6.875 0.5H5.625C5.28125 0.5 5 0.78125 5 1.125V3H3.125C2.08984 3 1.25 3.83984 1.25 4.875V6.75H18.75V4.875C18.75 3.83984 17.9102 3 16.875 3Z" fill="#42382D"/>
</g>
<defs>
<clipPath id="clip0_743_672">
<rect width="20" height="20" fill="white" transform="translate(0 0.5)"/>
</clipPath>
</defs>
</svg>
