<svg xmlns="http://www.w3.org/2000/svg" xmlns:xlink="http://www.w3.org/1999/xlink" width="57" height="57" viewBox="0 0 57 57">
  <defs>
    <clipPath id="clip-path">
      <rect id="Rectangle_88" data-name="Rectangle 88" width="20.783" height="20.759" fill="#42cc8c"/>
    </clipPath>
  </defs>
  <g id="Group_586" data-name="Group 586" transform="translate(0)">
    <circle id="Ellipse_6" data-name="Ellipse 6" cx="28.5" cy="28.5" r="28.5" transform="translate(0 0)" fill="#42cc8c" opacity="0.1"/>
    <g id="Group_588" data-name="Group 588" transform="translate(18.072 18.084)">
      <g id="Group_587" data-name="Group 587" clip-path="url(#clip-path)">
        <path id="Path_3055" data-name="Path 3055" d="M14.519,80.647a8.36,8.36,0,0,1-3.042-.743,20.372,20.372,0,0,1-7.755-5.868A18.5,18.5,0,0,1,.588,68.752,7.942,7.942,0,0,1,0,65.926a2.786,2.786,0,0,1,.918-2.151c.5-.459.966-.955,1.451-1.43a1.56,1.56,0,0,1,1.264-.5,1.5,1.5,0,0,1,.94.439c.877.865,1.76,1.724,2.61,2.615a1.485,1.485,0,0,1-.066,2.223c-.485.5-.983.982-1.477,1.471-.181.18-.188.208-.089.441a9.661,9.661,0,0,0,1.587,2.419A15.059,15.059,0,0,0,10.534,74.5c.372.236.775.423,1.163.633.149.081.246,0,.344-.1.493-.5.985-1,1.482-1.488a1.52,1.52,0,0,1,2.328,0q1.21,1.2,2.414,2.41c.048.048.1.1.14.15a1.491,1.491,0,0,1,.026,2.04c-.11.134-.238.253-.359.377-.413.42-.832.836-1.241,1.26a2.9,2.9,0,0,1-2.311.86" transform="translate(0 -59.888)" fill="#42cc8c"/>
        <path id="Path_3056" data-name="Path 3056" d="M330.405,0a8.946,8.946,0,0,1,2.178.467,10.263,10.263,0,0,1,6.9,7.7,8.946,8.946,0,0,1,.163,1.012,1.057,1.057,0,1,1-2.1.227,8.262,8.262,0,0,0-7.008-7.256c-.12-.017-.24-.031-.359-.049a1.045,1.045,0,0,1-.9-1.113A1.064,1.064,0,0,1,330.405,0" transform="translate(-318.873 0)" fill="#42cc8c"/>
        <path id="Path_3057" data-name="Path 3057" d="M334.977,123.7a1.047,1.047,0,0,1-1.042-.9,4.375,4.375,0,0,0-.633-1.62,4.441,4.441,0,0,0-3.006-2.039,1.072,1.072,0,0,1-.793-1.591,1.054,1.054,0,0,1,1.073-.511,6.708,6.708,0,0,1,5.446,5.44,1.045,1.045,0,0,1-1.045,1.217" transform="translate(-318.957 -113.331)" fill="#42cc8c"/>
      </g>
    </g>
  </g>
</svg>
