<svg width="18" height="23" viewBox="0 0 18 23" fill="none" xmlns="http://www.w3.org/2000/svg">
<path d="M15.7499 4.60001H13.5C13.5 2.0585 11.4863 0 8.99998 0C6.51374 0 4.5 2.0585 4.5 4.60001H2.24999C1.0125 4.60001 0 5.63501 0 6.90001V20.7C0 21.965 1.0125 23 2.24999 23H15.7499C16.9875 23 18 21.965 18 20.7V6.90001C18 5.63501 16.9875 4.60001 15.7499 4.60001ZM6.74999 9.19998C6.74999 9.83251 6.24374 10.35 5.62499 10.35C5.00624 10.35 4.5 9.83251 4.5 9.19998V6.90001H6.74999V9.19998ZM8.99998 2.3C10.2375 2.3 11.25 3.335 11.25 4.60001H6.74999C6.74999 3.335 7.76249 2.3 8.99998 2.3ZM13.5 9.19998C13.5 9.83251 12.9937 10.35 12.3749 10.35C11.7563 10.35 11.25 9.83251 11.25 9.19998V6.90001H13.5V9.19998Z" fill="#42382D"/>
</svg>
