<svg width="32" height="32" viewBox="0 0 30 30" fill="none" xmlns="http://www.w3.org/2000/svg">
<path fill-rule="evenodd" clip-rule="evenodd" d="M9.00002 10H7.50004C6.675 10 6 10.675 6 11.5V20.5C6 21.325 6.675 22 7.50004 22H15V14C15 13.4477 15.4477 13 16 13H18V11.5C18 10.675 17.325 10 16.5 10H15C15 8.3425 13.6575 7 12 7C10.3425 7 9.00002 8.3425 9.00002 10ZM14.25 13.75C13.8375 13.75 13.5 13.4125 13.5 13V11.5H15V13C15 13.4125 14.6625 13.75 14.25 13.75ZM10.5 10C10.5 9.175 11.175 8.5 12 8.5C12.825 8.5 13.5 9.175 13.5 10H10.5ZM9.75004 13.75C9.33752 13.75 9.00002 13.4125 9.00002 13V11.5H10.5V13C10.5 13.4125 10.1625 13.75 9.75004 13.75Z" fill="#42382D"/>
<path d="M24.75 17.2481H25.5C25.5 16.5585 26.1712 16 27 16C27.8288 16 28.5 16.5585 28.5 17.2481H29.25C29.6625 17.2481 30 17.5289 30 17.8721V21.6163C30 21.9595 29.6625 22.2403 29.25 22.2403H24.75C24.3375 22.2403 24 21.9595 24 21.6163V17.8721C24 17.5289 24.3375 17.2481 24.75 17.2481ZM27.75 18.4961C27.75 18.6677 27.9188 18.8081 28.125 18.8081C28.3312 18.8081 28.5 18.6677 28.5 18.4961V17.8721H27.75V18.4961ZM27 16.624C26.5875 16.624 26.25 16.9048 26.25 17.2481H27.75C27.75 16.9048 27.4125 16.624 27 16.624ZM25.5 18.4961C25.5 18.6677 25.6688 18.8081 25.875 18.8081C26.0812 18.8081 26.25 18.6677 26.25 18.4961V17.8721H25.5V18.4961Z" fill="#42382D"/>
<path fill-rule="evenodd" clip-rule="evenodd" d="M18.25 14H17.125C16.5062 14 16 14.45 16 15V21C16 21.55 16.5062 22 17.125 22H23V18C23 17.4477 23.4477 17 24 17H25V15C25 14.45 24.4938 14 23.875 14H22.75C22.75 12.895 21.7432 12 20.5 12C19.2568 12 18.25 12.895 18.25 14ZM22.1875 16.5C21.8782 16.5 21.625 16.275 21.625 16V15H22.75V16C22.75 16.275 22.4968 16.5 22.1875 16.5ZM19.375 14C19.375 13.45 19.8812 13 20.5 13C21.1188 13 21.625 13.45 21.625 14H19.375ZM18.8125 16.5C18.5032 16.5 18.25 16.275 18.25 16V15H19.375V16C19.375 16.275 19.1218 16.5 18.8125 16.5Z" fill="#42382D"/>
</svg>
