<svg xmlns="http://www.w3.org/2000/svg" width="24.66" height="18.027" viewBox="0 0 24.66 18.027">
  <path id="Path_3058" data-name="Path 3058" d="M15.974.488a29.472,29.472,0,0,0-5.558,1.977c-3.963,1.652-5,1.908-7.776,1.915C.815,4.385.6,4.4.5,4.57c-.08.143.259,1.052,1.491,4,.877,2.1,1.71,4.062,1.851,4.361A2.17,2.17,0,0,0,5.19,14.126a15.4,15.4,0,0,0,4.01.007,28.711,28.711,0,0,0,5.087-1.7c4.622-1.992,6.708-2.5,9.4-2.293,1.194.092,1.346.065,1.426-.258a75.675,75.675,0,0,0-3.735-8.83c-.559-.666-.8-.74-2.585-.784A9.257,9.257,0,0,0,15.974.488ZM11.554,3.567A3.877,3.877,0,0,0,9.261,8.6a4.6,4.6,0,0,0,2.261,2.265,3.782,3.782,0,0,0,2.818-.028,4.313,4.313,0,0,0,1.926-1.924,2.779,2.779,0,0,0,.307-1.578,2.875,2.875,0,0,0-.279-1.55,4.021,4.021,0,0,0-3.436-2.367A3.057,3.057,0,0,0,11.554,3.567Zm0,.927c-.253.137-.27.182-.169.448s.076.334-.166.595a1.334,1.334,0,0,0,.071,2c.236.175.486.228,1.211.257a3.757,3.757,0,0,1,1,.121c.315.3-.493.844-1.25.844-.33,0-.366.029-.365.29a2.567,2.567,0,0,0,.068.54c.061.229.108.245.552.192a3.914,3.914,0,0,0,.657-.125c.125-.049.2.02.283.253.105.3.129.313.434.207.414-.144.446-.206.3-.581-.1-.275-.085-.344.162-.611a1.448,1.448,0,0,0,.372-1.492c-.246-.645-.6-.825-1.69-.868-.736-.029-.962-.074-1.011-.2-.086-.225.328-.539.813-.617.608-.1.667-.165.581-.671l-.075-.446-.4.064a3.933,3.933,0,0,0-.549.121c-.09.035-.2-.047-.27-.21C11.983,4.294,11.941,4.286,11.557,4.494ZM.572,8.5c-.212.212-.245.109.967,2.991.548,1.3,1.3,3.1,1.68,4,.788,1.882,1,2.207,1.679,2.534.436.211.66.239,1.978.246,2.471.014,3.888-.353,8.016-2.073,4.457-1.857,5.03-2,7.933-2.02,1.749-.01,2.157-.041,2.236-.166.114-.182.08-.321-.34-1.392-.254-.646-.375-.831-.577-.882a15.277,15.277,0,0,0-1.857-.013A16.487,16.487,0,0,0,15.525,13.5c-4.5,1.937-6.627,2.489-9.074,2.353-2.138-.119-2.136-.117-3.875-4.278C1.36,8.665,1.2,8.336.982,8.336A.668.668,0,0,0,.572,8.5Z" transform="translate(-0.458 -0.251)" fill="#f77d0f" fill-rule="evenodd"/>
</svg>
