<svg width="24" height="25" viewBox="0 0 24 25" fill="none" xmlns="http://www.w3.org/2000/svg">
<path d="M0 19.8322V21.8337C0 23.4884 4.03125 24.8337 9 24.8337C13.9688 24.8337 18 23.4884 18 21.8337V19.8322C16.0641 21.1962 12.525 21.8337 9 21.8337C5.475 21.8337 1.93594 21.1962 0 19.8322ZM15 6.83374C19.9688 6.83374 24 5.48843 24 3.83374C24 2.17905 19.9688 0.83374 15 0.83374C10.0312 0.83374 6 2.17905 6 3.83374C6 5.48843 10.0312 6.83374 15 6.83374ZM0 14.915V17.3337C0 18.9884 4.03125 20.3337 9 20.3337C13.9688 20.3337 18 18.9884 18 17.3337V14.915C16.0641 16.5087 12.5203 17.3337 9 17.3337C5.47969 17.3337 1.93594 16.5087 0 14.915ZM19.5 15.4306C22.1859 14.9103 24 13.9447 24 12.8337V10.8322C22.9125 11.6009 21.3141 12.1259 19.5 12.4494V15.4306ZM9 8.33374C4.03125 8.33374 0 10.0119 0 12.0837C0 14.1556 4.03125 15.8337 9 15.8337C13.9688 15.8337 18 14.1556 18 12.0837C18 10.0119 13.9688 8.33374 9 8.33374ZM19.2797 10.9728C22.0922 10.4666 24 9.4728 24 8.33374V6.33218C22.3359 7.50874 19.4766 8.14155 16.4672 8.29155C17.85 8.96187 18.8672 9.86187 19.2797 10.9728Z" fill="#FDAA38"/>
</svg>
