<svg xmlns="http://www.w3.org/2000/svg" width="16.088" height="24" viewBox="0 0 16.088 24">
  <g id="Group_75323" data-name="Group 75323" transform="translate(-51.461 -303.558)">
    <path id="Path_3122" data-name="Path 3122" d="M19.085,9.935V21.057A8.8,8.8,0,0,1,4.664,27.832a5.658,5.658,0,0,0,6.514-5.869V9.935a3.956,3.956,0,1,1,7.908,0" transform="translate(48.464 297.699)" fill="#151e54"/>
    <path id="Path_3123" data-name="Path 3123" d="M2.072,54.1A5.486,5.486,0,0,0,6.7,51.669c0-.073.011-.146.011-.221a3.357,3.357,0,1,0-5.5,2.585,5.6,5.6,0,0,0,.857.066" transform="translate(51.461 270.56)" fill="#f77d0f"/>
  </g>
</svg>
