<svg xmlns="http://www.w3.org/2000/svg" width="19.605" height="19.678" viewBox="0 0 19.605 19.678">
  <g id="Group_449" data-name="Group 449" transform="translate(0.7 0.7)">
    <path id="Path_402" data-name="Path 402" d="M12.15,16.5v1.919" transform="translate(-2.91 -3.248)" fill="none" stroke="#fff" stroke-linecap="round" stroke-linejoin="round" stroke-width="1.4"/>
    <path id="Path_403" data-name="Path 403" d="M7.15,21.742h9.139v-.914A1.833,1.833,0,0,0,14.461,19H8.978A1.833,1.833,0,0,0,7.15,20.828v.914Z" transform="translate(-2.48 -3.463)" fill="none" stroke="#fff" stroke-miterlimit="10" stroke-width="1.4"/>
    <path id="Path_404" data-name="Path 404" d="M6.15,22H17.117" transform="translate(-2.394 -3.722)" fill="none" stroke="#fff" stroke-linecap="round" stroke-linejoin="round" stroke-width="1.4"/>
    <path id="Path_405" data-name="Path 405" d="M11.4,14.795A6.393,6.393,0,0,1,5,8.4V5.656A3.655,3.655,0,0,1,8.656,2h5.483a3.655,3.655,0,0,1,3.656,3.656V8.4A6.393,6.393,0,0,1,11.4,14.795Z" transform="translate(-2.295 -2)" fill="none" stroke="#fff" stroke-linecap="round" stroke-linejoin="round" stroke-width="1.4"/>
    <path id="Path_406" data-name="Path 406" d="M5.175,11.022a4.441,4.441,0,0,1-1.764-1.1A4.875,4.875,0,0,1,2.04,6.635,2.263,2.263,0,0,1,4.325,4.35h.594a3.432,3.432,0,0,0-.274,1.371V8.463A6.441,6.441,0,0,0,5.175,11.022Z" transform="translate(-2.04 -2.202)" fill="none" stroke="#fff" stroke-linecap="round" stroke-linejoin="round" stroke-width="1.4"/>
    <path id="Path_407" data-name="Path 407" d="M18.53,11.022a4.441,4.441,0,0,0,1.764-1.1,4.875,4.875,0,0,0,1.371-3.29A2.263,2.263,0,0,0,19.38,4.35h-.594a3.432,3.432,0,0,1,.274,1.371V8.463A6.441,6.441,0,0,1,18.53,11.022Z" transform="translate(-3.46 -2.202)" fill="none" stroke="#fff" stroke-linecap="round" stroke-linejoin="round" stroke-width="1.4"/>
  </g>
</svg>
