<svg xmlns="http://www.w3.org/2000/svg" width="19.5" height="19.554" viewBox="0 0 19.5 19.554">
  <g id="Group_393" data-name="Group 393" transform="translate(-1.25 -1.25)" >
    <path id="Path_377" data-name="Path 377" d="M20,9.2v2.7q0,5.4-5.4,5.4h-.45a.912.912,0,0,0-.72.36l-1.35,1.8a1.279,1.279,0,0,1-2.16,0l-1.35-1.8a1.017,1.017,0,0,0-.72-.36H7.4c-3.6,0-5.4-.9-5.4-5.4V7.4Q2,2,7.4,2h5.4" fill="none" stroke="#f77d0f" stroke-linecap="round" stroke-linejoin="round" stroke-miterlimit="10" stroke-width="1.5"/>
    <path id="Path_378" data-name="Path 378" d="M19.25,6.5A2.25,2.25,0,1,0,17,4.25,2.25,2.25,0,0,0,19.25,6.5Z" transform="translate(-1.5)" fill="none" stroke="#f77d0f" stroke-linecap="round" stroke-linejoin="round" stroke-width="1.5"/>
    <path id="Path_379" data-name="Path 379" d="M16,11H16" transform="translate(-1.4 -0.9)" fill="none" stroke="#f77d0f" stroke-linecap="round" stroke-linejoin="round" stroke-width="1.5"/>
    <path id="Path_380" data-name="Path 380" d="M12,11H12" transform="translate(-1 -0.9)" fill="none" stroke="#f77d0f" stroke-linecap="round" stroke-linejoin="round" stroke-width="1.5"/>
    <path id="Path_381" data-name="Path 381" d="M7.995,11H8" transform="translate(-0.599 -0.9)" fill="none" stroke="#f77d0f" stroke-linecap="round" stroke-linejoin="round" stroke-width="1.5"/>
  </g>
</svg>
