<svg xmlns="http://www.w3.org/2000/svg" width="15.169" height="21.68" viewBox="0 0 15.169 21.68">
  <g id="Group_812" data-name="Group 812" transform="translate(-41 -514.241)">
    <path id="Rectangle_124" data-name="Rectangle 124" d="M2.021-.5H12.148a2.521,2.521,0,0,1,0,5.043H2.021a2.521,2.521,0,0,1,0-5.043ZM12.148,2.809a.788.788,0,0,0,0-1.576H2.021a.788.788,0,1,0,0,1.576Z" transform="translate(41.5 517.293)" fill="#fff"/>
    <path id="Rectangle_125" data-name="Rectangle 125" d="M2.1-.5h9.969a2.6,2.6,0,0,1,2.6,2.6V12.655a2.6,2.6,0,0,1-2.6,2.6H2.1a2.6,2.6,0,0,1-2.6-2.6V2.1A2.6,2.6,0,0,1,2.1-.5Zm9.969,14.022a.868.868,0,0,0,.867-.867V2.1a.868.868,0,0,0-.867-.867H2.1a.868.868,0,0,0-.867.867V12.655a.868.868,0,0,0,.867.867Z" transform="translate(41.5 520.666)" fill="#fff"/>
    <path id="Path_3130" data-name="Path 3130" d="M53.269,6.59H51.535a1.1,1.1,0,0,0-2.207,0H47.6a2.837,2.837,0,0,1,5.674,0Z" transform="translate(-1.847 510.488)" fill="#fff"/>
    <path id="Line_24" data-name="Line 24" d="M.367,8.863A.867.867,0,0,1-.5,8V.367a.867.867,0,1,1,1.733,0V8A.867.867,0,0,1,.367,8.863Z" transform="translate(44.751 523.875)" fill="#fff"/>
    <path id="Line_25" data-name="Line 25" d="M.367,8.863A.867.867,0,0,1-.5,8V.367a.867.867,0,1,1,1.733,0V8A.867.867,0,0,1,.367,8.863Z" transform="translate(48.218 523.875)" fill="#fff"/>
    <path id="Line_26" data-name="Line 26" d="M.367,8.863A.867.867,0,0,1-.5,8V.367a.867.867,0,1,1,1.733,0V8A.867.867,0,0,1,.367,8.863Z" transform="translate(51.685 523.875)" fill="#fff"/>
  </g>
</svg>
