<svg xmlns="http://www.w3.org/2000/svg" width="57" height="57" viewBox="0 0 57 57">
  <g id="Group_584" data-name="Group 584" transform="translate(0.275)">
    <circle id="Ellipse_6" data-name="Ellipse 6" cx="28.5" cy="28.5" r="28.5" transform="translate(-0.275 0)" fill="#3d75e5" opacity="0.1"/>
    <g id="Group_47" data-name="Group 47" transform="translate(23.458 17.552)">
      <g id="Group_48" data-name="Group 48" transform="translate(0 0)">
        <path id="Path_7" data-name="Path 7" d="M10.671,11.507H7.426V22.56H2.952V11.523H0V7.432H2.925c0-.975-.041-1.861.011-2.74A14.1,14.1,0,0,1,3.26,2.061,2.538,2.538,0,0,1,5.734.041C7.35-.037,8.973.022,10.664.022v3.9c-.581,0-1.184-.008-1.787,0-1.164.018-1.438.3-1.445,1.477,0,.571,0,1.142.007,1.713a1.619,1.619,0,0,0,.06.267h3.172Z" transform="translate(0 0)" fill="#3d75e5"/>
      </g>
    </g>
  </g>
</svg>
