<svg xmlns="http://www.w3.org/2000/svg" xmlns:xlink="http://www.w3.org/1999/xlink" width="37.89" height="23" viewBox="0 0 37.89 23">
  <defs>
    <clipPath id="clip-path">
      <rect id="Rectangle_3145" data-name="Rectangle 3145" width="37.89" height="23" transform="translate(0 0)" fill="#f77d0f"/>
    </clipPath>
  </defs>
  <g id="Group_75551" data-name="Group 75551" clip-path="url(#clip-path)">
    <path id="Path_3199" data-name="Path 3199" d="M55.664,13.468a1.375,1.375,0,0,0-.213-.7c-1.315-2.018-2.651-4.021-3.97-6.036a.962.962,0,0,0-.89-.479c-1.136.011-2.272,0-3.408,0h-.369V5.841q0-2.43,0-4.86c0-.7-.278-.981-.969-.981H25.108c-.084,0-.169,0-.252.006a.728.728,0,0,0-.7.656,10.97,10.97,0,0,0,0,1.511.745.745,0,0,0,.794.66.778.778,0,0,0,.75-.717c.017-.166.017-.334.026-.511H45.208V18.869c-.1.006-.158.014-.221.014q-4.513,0-9.026.006c-.213,0-.286-.083-.347-.266a3.2,3.2,0,0,0-1.7-1.94,3.335,3.335,0,0,0-4.626,1.95c-.034.1-.143.238-.219.239-1.1.016-2.205.011-3.336.011-.008-.12-.017-.192-.017-.265,0-1.052.006-2.1-.005-3.156a1.463,1.463,0,0,0-.121-.607.742.742,0,0,0-.864-.358.775.775,0,0,0-.589.8q-.011,2.162,0,4.324a.785.785,0,0,0,.881.846c1.284,0,2.567.008,3.85-.006a.4.4,0,0,1,.464.327,3.318,3.318,0,0,0,6.274-.045.348.348,0,0,1,.4-.281q5.428.009,10.856,0a.414.414,0,0,1,.464.33,3.16,3.16,0,0,0,2.822,2.191,3,3,0,0,0,3.194-1.736,1.182,1.182,0,0,1,1.386-.789c.657.044.944-.272.944-.927,0-2.02.007-4.04-.009-6.059M32.469,21.419a1.744,1.744,0,1,1,1.738-1.75,1.737,1.737,0,0,1-1.738,1.75m17.951,0a1.744,1.744,0,1,1,1.778-1.71,1.734,1.734,0,0,1-1.778,1.71m3.651-2.567c-.259.088-.384.02-.474-.243a3.325,3.325,0,0,0-6.291-.018c-.109.3-.109.3-.466.272V7.837h1.327c.631,0,1.262-.011,1.893.009a.532.532,0,0,1,.375.192q1.787,2.675,3.546,5.368a.675.675,0,0,1,.109.348c.007,1.63,0,3.26,0,4.89a1.915,1.915,0,0,1-.022.207" transform="translate(-17.785 0)" fill="#f77d0f"/>
    <path id="Path_3200" data-name="Path 3200" d="M6.691,45.849c-1.934,0-3.868,0-5.8,0a.789.789,0,0,1-.8-1.142.8.8,0,0,1,.778-.438h2.3q4.681,0,9.363.008a.794.794,0,0,1,.886.775.8.8,0,0,1-.9.8q-2.917,0-5.834,0" transform="translate(0 -32.624)" fill="#f77d0f"/>
    <path id="Path_3201" data-name="Path 3201" d="M16.635,29.46q2.081,0,4.162,0a2.019,2.019,0,0,1,.5.044A.785.785,0,0,1,21.284,31a1.412,1.412,0,0,1-.374.043q-4.288,0-8.576,0c-.574,0-.952-.353-.913-.843a.79.79,0,0,1,.862-.736c1.041-.007,2.081,0,3.122,0h1.23" transform="translate(-8.415 -21.71)" fill="#f77d0f"/>
    <path id="Path_3202" data-name="Path 3202" d="M25.182,14.662c1.009,0,2.018,0,3.027,0a.793.793,0,1,1,.015,1.577q-3.042.005-6.084,0a.8.8,0,1,1,.017-1.579c1.009,0,2.018,0,3.027,0" transform="translate(-15.666 -10.805)" fill="#f77d0f"/>
  </g>
</svg>
