<svg width="16" height="16" viewBox="0 0 16 16" fill="none" xmlns="http://www.w3.org/2000/svg">
<path d="M3.5 13C3.5 13.2761 3.72386 13.5 4 13.5C4.27614 13.5 4.5 13.2761 4.5 13H3.5ZM4.35355 2.64645C4.15829 2.45118 3.84171 2.45118 3.64645 2.64645L0.464466 5.82843C0.269204 6.02369 0.269204 6.34027 0.464466 6.53553C0.659728 6.7308 0.976311 6.7308 1.17157 6.53553L4 3.70711L6.82843 6.53553C7.02369 6.7308 7.34027 6.7308 7.53553 6.53553C7.7308 6.34027 7.7308 6.02369 7.53553 5.82843L4.35355 2.64645ZM4.5 13L4.5 3H3.5L3.5 13H4.5Z" fill="#747476"/>
<path d="M12.5 3C12.5 2.72386 12.2761 2.5 12 2.5C11.7239 2.5 11.5 2.72386 11.5 3L12.5 3ZM11.6464 13.3536C11.8417 13.5488 12.1583 13.5488 12.3536 13.3536L15.5355 10.1716C15.7308 9.97631 15.7308 9.65973 15.5355 9.46447C15.3403 9.2692 15.0237 9.2692 14.8284 9.46447L12 12.2929L9.17157 9.46447C8.97631 9.2692 8.65973 9.2692 8.46447 9.46447C8.2692 9.65973 8.2692 9.97631 8.46447 10.1716L11.6464 13.3536ZM11.5 3L11.5 13L12.5 13L12.5 3L11.5 3Z" fill="#747476"/>
</svg>
