<svg xmlns="http://www.w3.org/2000/svg" width="19.4" height="19.238" viewBox="0 0 19.4 19.238">
  <g id="Group_395" data-name="Group 395" transform="translate(-1.3 -1.39)" >
    <path id="Path_384" data-name="Path 384" d="M16.96,6.17A7.762,7.762,0,0,1,20.252,11.7" transform="translate(-1.499 -0.405)" fill="none" stroke="#f77d0f" stroke-linecap="round" stroke-linejoin="round" stroke-width="1.5"/>
    <path id="Path_385" data-name="Path 385" d="M3.49,11.752A7.737,7.737,0,0,1,6.728,6.22" transform="translate(-0.145 -0.41)" fill="none" stroke="#f77d0f" stroke-linecap="round" stroke-linejoin="round" stroke-width="1.5"/>
    <path id="Path_386" data-name="Path 386" d="M8.19,20.94A7.739,7.739,0,0,0,15.026,21" transform="translate(-0.617 -1.89)" fill="none" stroke="#f77d0f" stroke-linecap="round" stroke-linejoin="round" stroke-width="1.5"/>
    <path id="Path_387" data-name="Path 387" d="M11.781,7.141a2.5,2.5,0,1,0-2.5-2.5A2.5,2.5,0,0,0,11.781,7.141Z" transform="translate(-0.727)" fill="none" stroke="#f77d0f" stroke-linecap="round" stroke-linejoin="round" stroke-width="1.5"/>
    <path id="Path_388" data-name="Path 388" d="M4.551,19.361a2.5,2.5,0,1,0-2.5-2.5A2.5,2.5,0,0,0,4.551,19.361Z" transform="translate(0 -1.228)" fill="none" stroke="#f77d0f" stroke-linecap="round" stroke-linejoin="round" stroke-width="1.5"/>
    <path id="Path_389" data-name="Path 389" d="M18.891,19.361a2.5,2.5,0,1,0-2.5-2.5A2.5,2.5,0,0,0,18.891,19.361Z" transform="translate(-1.441 -1.228)" fill="none" stroke="#f77d0f" stroke-linecap="round" stroke-linejoin="round" stroke-width="1.5"/>
  </g>
</svg>
