<svg xmlns="http://www.w3.org/2000/svg" width="14.808" height="15.805" viewBox="0 0 14.808 15.805">
  <g id="Group_740" data-name="Group 740" transform="translate(352.062 -215.757)">
    <path id="Path_2521" data-name="Path 2521" d="M-337.455,223.682q0,3.568,0,7.136c0,.434-.118.545-.583.545h-13.249c-.452,0-.576-.114-.576-.531q0-7.176,0-14.353c0-.414.115-.521.557-.521h13.249c.486,0,.6.105.6.548Q-337.454,220.094-337.455,223.682Zm-13.6,6.932h12.778V216.706H-351.05Z" fill="#ff6d00" stroke="#ff7600" stroke-width="0.4"/>
    <path id="Path_2522" data-name="Path 2522" d="M-227.155,288.691v.77h-6.772v-.77Z" transform="translate(-112.718 -69.798)" fill="#ff6d00" stroke="#ff7600" stroke-width="0.4"/>
    <path id="Path_2523" data-name="Path 2523" d="M-227.14,505.773v.769h-6.771v-.769Z" transform="translate(-112.733 -278.117)" fill="#ff6d00" stroke="#ff7600" stroke-width="0.4"/>
    <path id="Path_2524" data-name="Path 2524" d="M-227,361.118v.773h-6.763v-.773Z" transform="translate(-112.871 -139.301)" fill="#ff6d00" stroke="#ff7600" stroke-width="0.4"/>
    <path id="Path_2525" data-name="Path 2525" d="M-233.928,434.132v-.764h6.769v.764Z" transform="translate(-112.717 -208.634)" fill="#ff6d00" stroke="#ff7600" stroke-width="0.4"/>
    <path id="Path_2526" data-name="Path 2526" d="M-288.117,288.634h1.173v.771h-1.173Z" transform="translate(-60.925 -69.743)" fill="#ff6d00" stroke="#ff7600" stroke-width="0.4"/>
    <path id="Path_2527" data-name="Path 2527" d="M-288.033,505.7h1.166v.767h-1.166Z" transform="translate(-61.005 -278.046)" fill="#ff6d00" stroke="#ff7600" stroke-width="0.4"/>
    <path id="Path_2528" data-name="Path 2528" d="M-286.968,361.182v.768h-1.177v-.768Z" transform="translate(-60.898 -139.363)" fill="#ff6d00" stroke="#ff7600" stroke-width="0.4"/>
    <path id="Path_2529" data-name="Path 2529" d="M-286.936,434.072H-288.1V433.3h1.168Z" transform="translate(-60.937 -208.566)" fill="#ff6d00" stroke="#ff7600" stroke-width="0.4"/>
  </g>
</svg>
