<svg xmlns="http://www.w3.org/2000/svg" width="23.625" height="16.382" viewBox="0 0 23.625 16.382">
  <g id="Group_828" data-name="Group 828" transform="translate(-285.57 -412.591)">
    <rect id="Rectangle_2983" data-name="Rectangle 2983" width="23.625" height="16.382" rx="1.671" transform="translate(285.57 412.591)" fill="#1670a2"/>
    <g id="Group_75322" data-name="Group 75322">
      <g id="Group_75317" data-name="Group 75317">
        <rect id="Rectangle_2976" data-name="Rectangle 2976" width="0.568" height="0.353" transform="translate(303.949 416.115)" fill="#fff"/>
        <rect id="Rectangle_2977" data-name="Rectangle 2977" width="0.568" height="0.353" transform="translate(303.225 416.115)" fill="#fff"/>
        <path id="Path_2577" data-name="Path 2577" d="M295.28,415.453h-.347v-.5h-.7v.5h-5.054l-.062-.132.479-.624v-.446h-.688l-.76.988.433.925h7.4v-1.21h-.7Z" fill="#fff"/>
        <rect id="Rectangle_2978" data-name="Rectangle 2978" width="0.568" height="0.353" transform="translate(295.363 414.306)" fill="#fff"/>
        <rect id="Rectangle_2979" data-name="Rectangle 2979" width="0.568" height="0.353" transform="translate(290.04 414.413)" fill="#fff"/>
        <rect id="Rectangle_2980" data-name="Rectangle 2980" width="0.568" height="0.353" transform="translate(290.776 414.413)" fill="#fff"/>
        <path id="Path_2578" data-name="Path 2578" d="M306.147,414.812H304.08l-.315-.262h2.2l-.229-.4h-2.757l-.044.141.947.789h1.629v.21H303.75l-.6-.5h-1.194v1.055h-1.963v-.433h1.658v-.62H298.97v1.567h3.7v-.832l.417.347h3.1l.434-.445v-.145Z" fill="#fff"/>
        <rect id="Rectangle_2981" data-name="Rectangle 2981" width="1.309" height="0.572" transform="translate(296.67 415.148)" fill="#fff"/>
      </g>
      <path id="Path_2579" data-name="Path 2579" d="M304.222,422.825l-3.539-2.662,3.477-2.129h-6.228l-3.046,1.866v-1.866h-4.343v4.791h4.343v-2.494l2.788,2.494Z" fill="#f7f719"/>
      <g id="Group_75318" data-name="Group 75318">
        <path id="Path_2580" data-name="Path 2580" d="M289.965,427.1v-2.374h.622v.281a.855.855,0,0,1,.314-.258.936.936,0,0,1,.4-.087.782.782,0,0,1,.589.2.864.864,0,0,1,.195.615V427.1h-.636v-1.434a.6.6,0,0,0-.086-.365.34.34,0,0,0-.281-.109.476.476,0,0,0-.356.134.5.5,0,0,0-.131.366V427.1Z" fill="#fff"/>
        <path id="Path_2581" data-name="Path 2581" d="M297.824,426.352h.633a1.02,1.02,0,0,1-.387.589,1.173,1.173,0,0,1-.711.213,1.028,1.028,0,0,1-.817-.346,1.378,1.378,0,0,1-.3-.938,1.338,1.338,0,0,1,.3-.919,1.026,1.026,0,0,1,.812-.336,1.076,1.076,0,0,1,.843.33,1.369,1.369,0,0,1,.3.943v.1c0,.022,0,.044-.005.065h-1.586a.669.669,0,0,0,.137.422.441.441,0,0,0,.355.142.5.5,0,0,0,.268-.065A.439.439,0,0,0,297.824,426.352Zm-.926-.716h.935a.544.544,0,0,0-.128-.366.452.452,0,0,0-.342-.126.426.426,0,0,0-.326.127.584.584,0,0,0-.14.365Z" fill="#fff"/>
        <path id="Path_2582" data-name="Path 2582" d="M304.8,427.4l-.209.007c-.081,0-.132.005-.154.005a.7.7,0,0,1-.5-.136.784.784,0,0,1-.135-.538V425.45h-.314v-.445h.314v-.649h.629v.649h.367v.445h-.367v1.315a.143.143,0,0,0,.042.124.321.321,0,0,0,.17.03h.155Z" fill="#fff"/>
      </g>
    </g>
  </g>
</svg>
