<svg xmlns="http://www.w3.org/2000/svg" width="19.5" height="21.449" viewBox="0 0 19.5 21.449">
  <g id="Group_392" data-name="Group 392" transform="translate(-2.25 -1.275)" >
    <path id="Path_375" data-name="Path 375" d="M3,9.11v5.77C3,17,3,17,5,18.35l5.5,3.18a3.3,3.3,0,0,0,3,0L19,18.35C21,17,21,17,21,14.89V9.11C21,7,21,7,19,5.65L13.5,2.47a3.3,3.3,0,0,0-3,0L5,5.65C3,7,3,7,3,9.11Z" fill="none" stroke="#f77d0f" stroke-linecap="round" stroke-linejoin="round" stroke-width="1.5"/>
    <path id="Path_376" data-name="Path 376" d="M12,15a3,3,0,1,0-3-3A3,3,0,0,0,12,15Z" fill="none" stroke="#f77d0f" stroke-linecap="round" stroke-linejoin="round" stroke-width="1.5"/>
  </g>
</svg>
