<svg width="14" height="14" viewBox="0 0 14 14" fill="none" xmlns="http://www.w3.org/2000/svg">
<path d="M0.833496 6.99992C0.833496 3.59541 3.59029 0.833252 6.9935 0.833252C10.4043 0.833252 13.1668 3.59639 13.1668 6.99992C13.1668 10.4035 10.4043 13.1666 6.9935 13.1666C3.59029 13.1666 0.833496 10.4044 0.833496 6.99992ZM6.16683 5.33325C6.16683 4.50378 5.4963 3.83325 4.66683 3.83325C3.83735 3.83325 3.16683 4.50378 3.16683 5.33325C3.16683 6.16273 3.83735 6.83325 4.66683 6.83325C5.4963 6.83325 6.16683 6.16273 6.16683 5.33325ZM7.00016 11.4999C8.59281 11.4999 9.92082 10.4633 10.592 9.02744C10.8539 8.48018 10.4588 7.83325 9.84016 7.83325H4.16016C3.54156 7.83325 3.14641 8.48018 3.40835 9.02744C4.0795 10.4633 5.40752 11.4999 7.00016 11.4999ZM7.8335 5.33325C7.8335 6.16273 8.50402 6.83325 9.3335 6.83325C10.163 6.83325 10.8335 6.16273 10.8335 5.33325C10.8335 4.50378 10.163 3.83325 9.3335 3.83325C8.50402 3.83325 7.8335 4.50378 7.8335 5.33325Z" stroke="#FDAA38"/>
</svg>
