<svg xmlns="http://www.w3.org/2000/svg" xmlns:xlink="http://www.w3.org/1999/xlink" width="191.54" height="44.654" viewBox="0 0 191.54 44.654">
  <defs>
    <clipPath id="clip-path">
      <rect id="Rectangle_117" data-name="Rectangle 117" width="191.54" height="44.654" fill="#fff"/>
    </clipPath>
  </defs>
  <g id="Group_731" data-name="Group 731" clip-path="url(#clip-path)">
    <path id="Path_3107" data-name="Path 3107" d="M153.3,52.647h-2.057V36.75c0-.753-.051-1.656-.157-2.761a8.026,8.026,0,0,0-1.113-3.345,7.807,7.807,0,0,0-3.04-2.754,12.118,12.118,0,0,0-5.744-1.133,12.957,12.957,0,0,0-1.823.161,9.24,9.24,0,0,0-2.4.731,10.677,10.677,0,0,0-2.47,1.578,8.84,8.84,0,0,0-1.539,1.712q-.215-.337-.44-.67a7.335,7.335,0,0,0-1.7-1.744,8.93,8.93,0,0,0-2.607-1.274,12.684,12.684,0,0,0-3.808-.5,10.461,10.461,0,0,0-3.726.6,10.676,10.676,0,0,0-2.633,1.419,9.394,9.394,0,0,0-1.478,1.372V26.757h-11.7a1.2,1.2,0,0,0,0,2.4h2.829v23.49h-2.057a1.2,1.2,0,0,0,0,2.4h12.682a1.2,1.2,0,0,0,0-2.4h-1.63V38.521c0-.991.03-1.842.089-2.529a10.848,10.848,0,0,1,.284-1.765,5.221,5.221,0,0,1,.5-1.276,9.069,9.069,0,0,1,.772-1.133,4.715,4.715,0,0,1,3.687-1.867,2.933,2.933,0,0,1,2.041.865A4.312,4.312,0,0,1,124.97,34V52.647h-1.691a1.2,1.2,0,0,0,0,2.4H135.6a1.2,1.2,0,0,0,0-2.4h-1.63V35.407a5.181,5.181,0,0,1,.549-2.473,5.4,5.4,0,0,1,1.359-1.686,6.2,6.2,0,0,1,1.681-.979,4.16,4.16,0,0,1,1.377-.317,2.806,2.806,0,0,1,2.507,1.04,6.21,6.21,0,0,1,.811,3.5V52.647h-1.63a1.2,1.2,0,0,0,0,2.4H153.3a1.2,1.2,0,0,0,0-2.4" transform="translate(-40.265 -10.393)" fill="#fff"/>
    <path id="Path_3108" data-name="Path 3108" d="M211.361,29.5a11.794,11.794,0,0,0-3.959-2.136,14,14,0,0,0-10.041.534,15.68,15.68,0,0,0-4.571,3.153,14.678,14.678,0,0,0-3.069,4.5,12.99,12.99,0,0,0-1.122,5.244,14.556,14.556,0,0,0,1.183,5.985,12.958,12.958,0,0,0,3.279,4.493,14.413,14.413,0,0,0,4.87,2.795,18.264,18.264,0,0,0,5.953.953,12.6,12.6,0,0,0,4.693-.79,11.282,11.282,0,0,0,3.275-1.957,9.756,9.756,0,0,0,2.1-2.55,12.374,12.374,0,0,0,.8-1.7,1.162,1.162,0,1,0-2.185-.791c-.076.212-.181.474-.325.8a8.136,8.136,0,0,1-1.405,2.073,9.147,9.147,0,0,1-2.451,1.875,7.52,7.52,0,0,1-3.617.792A6,6,0,0,1,201.1,51.8a6.407,6.407,0,0,1-2.007-2.562,11.338,11.338,0,0,1-.881-3.646c-.115-1.4-.174-2.819-.174-4.207v-1.9H215.4v-.745a12.331,12.331,0,0,0-1.136-5.48,11.225,11.225,0,0,0-2.9-3.75m-11.082.257a3.9,3.9,0,0,1,2.6-.761,2.712,2.712,0,0,1,1.736.479,2.984,2.984,0,0,1,.922,1.274,5.809,5.809,0,0,1,.366,1.669q.057.915.057,1.543v3.2h-7.895c.039-.766.1-1.571.169-2.4a11.4,11.4,0,0,1,.635-2.928,4.955,4.955,0,0,1,1.406-2.078" transform="translate(-73.257 -10.366)" fill="#fff"/>
    <path id="Path_3109" data-name="Path 3109" d="M294.859,51.794h0a1.152,1.152,0,0,0-1.452-.058,2.217,2.217,0,0,1-1.484.53c-.8-.089-.961-.9-.961-2.1V35.693a9.412,9.412,0,0,0-.932-4.4A7.466,7.466,0,0,0,287.5,28.48a9.812,9.812,0,0,0-3.658-1.391,21.284,21.284,0,0,0-8.172.065,12.658,12.658,0,0,0-3.376,1.272,7.512,7.512,0,0,0-2.487,2.2,5.326,5.326,0,0,0-.982,3.139,3.992,3.992,0,0,0,.412,1.931,3.3,3.3,0,0,0,1.016,1.157,3.24,3.24,0,0,0,1.4.531,9.22,9.22,0,0,0,1.3.095c.282,0,.635-.009,1.057-.029a4.144,4.144,0,0,0,1.418-.32,3.228,3.228,0,0,0,1.246-.941,2.813,2.813,0,0,0,.577-1.84,7.005,7.005,0,0,0-.063-.736c-.04-.306-.078-.633-.116-.982s-.08-.679-.119-.976a4.821,4.821,0,0,1-.051-.516,1.747,1.747,0,0,1,.642-1.618,3.643,3.643,0,0,1,1.945-.5,2.353,2.353,0,0,1,2.223.921,4.811,4.811,0,0,1,.656,2.483v3.559a3.681,3.681,0,0,1-.253,1.5,2.44,2.44,0,0,1-.882.952,8.93,8.93,0,0,1-2.123.961c-.971.324-2.235.714-3.871,1.194-.972.311-1.933.637-2.857.971a10.546,10.546,0,0,0-2.635,1.382,7.114,7.114,0,0,0-1.951,2.147,6.24,6.24,0,0,0-.773,3.205,5.626,5.626,0,0,0,.882,3.181,6.035,6.035,0,0,0,2.255,2.024,10.748,10.748,0,0,0,2.882,1,15.341,15.341,0,0,0,3,.306,11.609,11.609,0,0,0,5.057-.895,5.532,5.532,0,0,0,2.177-2.059,5.09,5.09,0,0,0,1.519,1.76,9.183,9.183,0,0,0,5.18,1.418,7.376,7.376,0,0,0,4.936-1.553,1.084,1.084,0,0,0,.345-.82,1.183,1.183,0,0,0-.4-.869m-15.839.256a2.57,2.57,0,0,1-1.638-.45,3.141,3.141,0,0,1-.923-1.205,5.176,5.176,0,0,1-.409-1.585c-.056-.6-.085-1.122-.085-1.565a5.712,5.712,0,0,1,.476-2.529,5.267,5.267,0,0,1,1.252-1.639,7.3,7.3,0,0,1,1.8-1.139c.743-.332,1.488-.675,2.246-1.035q.351-.175.623-.339v5.98a9.706,9.706,0,0,1-.32,2.681,4.873,4.873,0,0,1-.8,1.671,3.073,3.073,0,0,1-1.056.875,2.684,2.684,0,0,1-1.168.278" transform="translate(-103.719 -10.381)" fill="#fff"/>
    <path id="Path_3110" data-name="Path 3110" d="M80.6,51.793a1.152,1.152,0,0,0-1.452-.058,2.227,2.227,0,0,1-1.484.53c-.8-.089-.961-.9-.961-2.1V35.693a9.411,9.411,0,0,0-.932-4.4,7.466,7.466,0,0,0-2.525-2.813,9.813,9.813,0,0,0-3.658-1.391,21.285,21.285,0,0,0-8.172.065,12.658,12.658,0,0,0-3.376,1.272,7.513,7.513,0,0,0-2.487,2.2,5.326,5.326,0,0,0-.982,3.139A3.993,3.993,0,0,0,54.98,35.7,3.3,3.3,0,0,0,56,36.855a3.24,3.24,0,0,0,1.395.531,9.221,9.221,0,0,0,1.3.095c.282,0,.635-.009,1.057-.029a4.143,4.143,0,0,0,1.418-.32,3.227,3.227,0,0,0,1.246-.941,2.814,2.814,0,0,0,.577-1.84,7.009,7.009,0,0,0-.063-.736c-.04-.306-.078-.633-.116-.982s-.08-.679-.119-.976a4.822,4.822,0,0,1-.051-.516,1.747,1.747,0,0,1,.642-1.618,3.643,3.643,0,0,1,1.945-.5,2.353,2.353,0,0,1,2.223.921,4.811,4.811,0,0,1,.656,2.483v3.559a3.692,3.692,0,0,1-.253,1.5,2.44,2.44,0,0,1-.882.952,8.928,8.928,0,0,1-2.123.961c-.971.324-2.235.714-3.871,1.194-.972.311-1.933.637-2.857.971a10.547,10.547,0,0,0-2.635,1.382,7.115,7.115,0,0,0-1.951,2.147A6.24,6.24,0,0,0,52.76,48.3a5.626,5.626,0,0,0,.882,3.181A6.035,6.035,0,0,0,55.9,53.5a10.749,10.749,0,0,0,2.882,1,15.34,15.34,0,0,0,3,.306,11.609,11.609,0,0,0,5.057-.895,5.532,5.532,0,0,0,2.177-2.059,5.091,5.091,0,0,0,1.519,1.76,9.183,9.183,0,0,0,5.18,1.418,7.37,7.37,0,0,0,4.936-1.553,1.085,1.085,0,0,0,.345-.82,1.183,1.183,0,0,0-.4-.869Zm-15.838.257a2.57,2.57,0,0,1-1.638-.45,3.142,3.142,0,0,1-.923-1.205,5.179,5.179,0,0,1-.409-1.585c-.056-.6-.085-1.122-.085-1.565a5.712,5.712,0,0,1,.476-2.529,5.268,5.268,0,0,1,1.252-1.639,7.3,7.3,0,0,1,1.8-1.139c.743-.332,1.488-.675,2.246-1.035q.35-.175.623-.339v5.98a9.7,9.7,0,0,1-.32,2.681,4.871,4.871,0,0,1-.8,1.671,3.073,3.073,0,0,1-1.056.875,2.684,2.684,0,0,1-1.167.278" transform="translate(-20.494 -10.381)" fill="#fff"/>
    <path id="Path_3111" data-name="Path 3111" d="M250.1,7.036a4.033,4.033,0,0,0-5.753,0,4.033,4.033,0,0,0,0,5.754,4.032,4.032,0,0,0,5.753,0,4.034,4.034,0,0,0,0-5.754" transform="translate(-94.442 -2.264)" fill="#f77d0f"/>
    <path id="Path_3112" data-name="Path 3112" d="M251.393,52.787h-2.024V26.842H238.75a1.147,1.147,0,0,0,0,2.293h2.025V52.787H238.75a1.147,1.147,0,0,0,0,2.293h12.644a1.147,1.147,0,1,0,0-2.293" transform="translate(-92.292 -10.426)" fill="#fff"/>
    <path id="Path_3113" data-name="Path 3113" d="M270.064,11.477a.773.773,0,0,0-.545.218,2.634,2.634,0,0,1-.8.524,2.5,2.5,0,0,1-3.256-1.34,2.421,2.421,0,0,1-.194-.964,2.463,2.463,0,0,1,.2-.974,2.5,2.5,0,0,1,.536-.8,2.5,2.5,0,0,1,2.718-.544,2.987,2.987,0,0,1,.793.489.779.779,0,0,0,.55.222h0a.779.779,0,0,0,.549-.222.638.638,0,0,0,.172-.681.891.891,0,0,0-.246-.413c-.111-.1-.254-.215-.424-.342a4.327,4.327,0,0,0-.61-.378,4.521,4.521,0,0,0-.766-.3,3.373,3.373,0,0,0-.957-.129h0a4.374,4.374,0,0,0-1.607.36,4.19,4.19,0,0,0-1.289.87,3.993,3.993,0,0,0-1.166,2.844,4.043,4.043,0,0,0,.319,1.61,3.962,3.962,0,0,0,.874,1.277,4.169,4.169,0,0,0,3.814,1.031,4.338,4.338,0,0,0,.8-.276,3.624,3.624,0,0,0,.627-.364,3.682,3.682,0,0,0,.415-.348.853.853,0,0,0,.264-.577.747.747,0,0,0-.218-.568.781.781,0,0,0-.551-.221" transform="translate(-102.437 -2.269)" fill="#fff"/>
    <path id="Path_3114" data-name="Path 3114" d="M283.764,7.047a4.261,4.261,0,0,0-1.278-.876,3.755,3.755,0,0,0-1.555-.33h0a4.4,4.4,0,0,0-1.606.36,4.178,4.178,0,0,0-1.288.87,4,4,0,0,0-1.167,2.844,4.045,4.045,0,0,0,.319,1.61,3.942,3.942,0,0,0,.875,1.277,4.072,4.072,0,0,0,5.726-.051,4.263,4.263,0,0,0,.861-1.279,3.959,3.959,0,0,0-.009-3.138,4.227,4.227,0,0,0-.878-1.287m-.54,3.832a2.557,2.557,0,0,1-.536.8,2.5,2.5,0,0,1-3.536,0,2.563,2.563,0,0,1-.538-.8,2.422,2.422,0,0,1-.194-.964,2.45,2.45,0,0,1,.2-.974,2.488,2.488,0,0,1,.535-.8,2.531,2.531,0,0,1,.8-.537,2.411,2.411,0,0,1,.964-.194,2.479,2.479,0,0,1,.974.2,2.468,2.468,0,0,1,1.337,1.338,2.472,2.472,0,0,1,.2.974,2.414,2.414,0,0,1-.2.964" transform="translate(-107.545 -2.269)" fill="#fff"/>
    <path id="Path_3115" data-name="Path 3115" d="M301.32,7.549a2.826,2.826,0,0,0-1.505-1.505,2.873,2.873,0,0,0-2.436.1,3.04,3.04,0,0,0-.742.568,2.839,2.839,0,0,0-4.069-.059,2.784,2.784,0,0,0-.6.9,2.871,2.871,0,0,0-.216,1.109v4.511a.747.747,0,0,0,.225.549.776.776,0,0,0,.548.223h0a.781.781,0,0,0,.551-.222.755.755,0,0,0,.225-.55V8.662a1.235,1.235,0,0,1,.1-.5,1.418,1.418,0,0,1,.276-.419,1.25,1.25,0,0,1,.9-.377,1.213,1.213,0,0,1,.891.368,1.334,1.334,0,0,1,.4.926v4.511a.752.752,0,0,0,.226.55.783.783,0,0,0,1.1,0,.754.754,0,0,0,.226-.55V8.662a1.226,1.226,0,0,1,.1-.5,1.412,1.412,0,0,1,.275-.418,1.263,1.263,0,0,1,.4-.276,1.312,1.312,0,0,1,1,0,1.328,1.328,0,0,1,.695.694,1.253,1.253,0,0,1,.1.5v4.511a.776.776,0,1,0,1.551,0V8.662a2.767,2.767,0,0,0-.226-1.113" transform="translate(-113.325 -2.26)" fill="#fff"/>
    <path id="Path_3116" data-name="Path 3116" d="M169.723,2.225a1.079,1.079,0,0,0,.793-.328,1.061,1.061,0,0,0,.328-.776,1.081,1.081,0,0,0-.328-.793A1.081,1.081,0,0,0,169.723,0a1.061,1.061,0,0,0-.776.328,1.079,1.079,0,0,0-.328.793,1.058,1.058,0,0,0,.328.776,1.058,1.058,0,0,0,.776.328" transform="translate(-65.497 0)" fill="#f77d0f"/>
    <path id="Path_3117" data-name="Path 3117" d="M165.426,2.225a1.079,1.079,0,0,0,.793-.328,1.061,1.061,0,0,0,.328-.776,1.081,1.081,0,0,0-.328-.793,1.124,1.124,0,0,0-1.586,0,1.079,1.079,0,0,0-.328.793,1.059,1.059,0,0,0,.328.776,1.078,1.078,0,0,0,.793.328" transform="translate(-63.821 0)" fill="#f77d0f"/>
    <path id="Path_3118" data-name="Path 3118" d="M179.452,21.235a1.059,1.059,0,0,0-.776.328,1.124,1.124,0,0,0,0,1.586,1.061,1.061,0,0,0,.776.328,1.121,1.121,0,1,0,0-2.242" transform="translate(-69.276 -8.248)" fill="#f77d0f"/>
    <path id="Path_3119" data-name="Path 3119" d="M175.155,21.235a1.119,1.119,0,1,0,.793.328,1.079,1.079,0,0,0-.793-.328" transform="translate(-67.6 -8.248)" fill="#f77d0f"/>
    <path id="Path_3120" data-name="Path 3120" d="M204.98,7.012A4.485,4.485,0,0,0,201.617,5.7a10.825,10.825,0,0,0-2.984.5V7.875a12.832,12.832,0,0,1,2.449-.362,3.168,3.168,0,0,1,2.165.69,2.4,2.4,0,0,1,.785,1.9v1.552a.381.381,0,0,1-.431.431h-7.3a.431.431,0,0,1-.311-.138.546.546,0,0,1-.086-.294V8.892a2.929,2.929,0,0,0-1.139-2.484,4.355,4.355,0,0,0-5.088.276,4.006,4.006,0,0,0-1.259,3.156,5.814,5.814,0,0,0,.414,2.242h-5.726a4.012,4.012,0,0,1,.949-1.586,5.071,5.071,0,0,1,1.449-1.07l.207-.483a4.692,4.692,0,0,0-2-2.5,4.45,4.45,0,0,0-2.466-.725,4.981,4.981,0,0,0-2.5.656,4.589,4.589,0,0,0-2.139,2.57l.19.483a4.32,4.32,0,0,1,1.535,1.156,4.226,4.226,0,0,1,.879,1.5h-5.76V5.908h-2.087V11.6a.443.443,0,0,1-.155.345.4.4,0,0,1-.345.138H167.9a.344.344,0,0,1-.276-.12.386.386,0,0,1-.12-.311V5.443h-1.035l-.741.569a4.571,4.571,0,0,0-1.794-.38,3.653,3.653,0,0,0-2.708,1.121,4.3,4.3,0,0,0-1.207,3.121,4.271,4.271,0,0,0,1.311,3.277,3.436,3.436,0,0,0,2.345.862,3.356,3.356,0,0,0,2.19-.811,1.979,1.979,0,0,0,1.432.638h4.294a1.827,1.827,0,0,0,1.466-.707h.035l.638.707h6.484a1.192,1.192,0,0,0,.914-.449h.086a1.16,1.16,0,0,0,.879.449h6.968l.483-.586h.035a3.4,3.4,0,0,0,2.553,1.1,2.716,2.716,0,0,0,2.242-1.07,1.809,1.809,0,0,0,1.328.552h8.572a1.806,1.806,0,0,0,1.38-.621,1.924,1.924,0,0,0,.483-1.276V9.979a4.093,4.093,0,0,0-1.155-2.967m-39.581,5a3.4,3.4,0,0,1-1.293.276,1.794,1.794,0,0,1-1.457-.656,2.643,2.643,0,0,1-.543-1.742,2.564,2.564,0,0,1,.6-1.768,1.961,1.961,0,0,1,1.535-.681,3.322,3.322,0,0,1,1.155.224Zm16.918-2.259A5.317,5.317,0,0,0,181.2,11.6h-.069a5.412,5.412,0,0,0-1.07-1.759,3.689,3.689,0,0,0-1.242-1.035,2.443,2.443,0,0,1,1.069-1.035,3.038,3.038,0,0,1,1.311-.293,2.7,2.7,0,0,1,1.19.259,2.572,2.572,0,0,1,1.121,1.069,3.725,3.725,0,0,0-1.19.949M193.8,11.893a2.065,2.065,0,0,1-1.449.707,1.551,1.551,0,0,1-1.328-.759,3.421,3.421,0,0,1-.518-1.966,2.794,2.794,0,0,1,.509-1.759,1.628,1.628,0,0,1,1.353-.656,1.332,1.332,0,0,1,1.035.4,1.4,1.4,0,0,1,.4,1.035Z" transform="translate(-62.156 -2.114)" fill="#f77d0f"/>
    <path id="Path_3121" data-name="Path 3121" d="M226.406,21.235a1.059,1.059,0,0,0-.776.328,1.124,1.124,0,0,0,0,1.586,1.061,1.061,0,0,0,.776.328,1.121,1.121,0,1,0,0-2.242" transform="translate(-87.514 -8.248)" fill="#f77d0f"/>
    <path id="Path_3122" data-name="Path 3122" d="M29.343,12.835V31.868A15.063,15.063,0,0,1,4.664,43.461a9.634,9.634,0,0,0,1.477.113c5.447,0,9.67-4.222,9.67-10.157V12.835a6.769,6.769,0,1,1,13.532,0" transform="translate(-1.812 -2.276)" fill="#fff"/>
    <path id="Path_3123" data-name="Path 3123" d="M3.545,58.371a9.389,9.389,0,0,0,7.927-4.157c.008-.125.019-.25.019-.378a5.745,5.745,0,1,0-9.411,4.423,9.58,9.58,0,0,0,1.466.113" transform="translate(0 -18.68)" fill="#f77d0f"/>
  </g>
</svg>
