<svg xmlns="http://www.w3.org/2000/svg" xmlns:xlink="http://www.w3.org/1999/xlink" width="123.343" height="28.755" viewBox="0 0 123.343 28.755">
  <defs>
    <clipPath id="clip-path">
      <rect id="Rectangle_117" data-name="Rectangle 117" width="123.343" height="28.755" fill="none"/>
    </clipPath>
  </defs>
  <g id="Group_731" data-name="Group 731" transform="translate(0 0)">
    <g id="Group_731-2" data-name="Group 731" transform="translate(0 0)" clip-path="url(#clip-path)">
      <path id="Path_3107" data-name="Path 3107" d="M135.628,43.429H134.3V33.192c0-.485-.033-1.066-.1-1.778a5.168,5.168,0,0,0-.717-2.154,5.027,5.027,0,0,0-1.958-1.773,7.8,7.8,0,0,0-3.7-.73,8.344,8.344,0,0,0-1.174.1,5.95,5.95,0,0,0-1.546.471,6.876,6.876,0,0,0-1.591,1.016,5.692,5.692,0,0,0-.991,1.1q-.138-.217-.284-.431a4.724,4.724,0,0,0-1.1-1.123,5.75,5.75,0,0,0-1.678-.82,8.168,8.168,0,0,0-2.452-.319,6.737,6.737,0,0,0-2.4.387,6.875,6.875,0,0,0-1.7.914,6.05,6.05,0,0,0-.951.884V26.757h-7.536a.773.773,0,0,0,0,1.546h1.822V43.429h-1.324a.773.773,0,0,0,0,1.546H113.1a.773.773,0,0,0,0-1.546h-1.05v-9.1c0-.638.019-1.186.057-1.628a6.985,6.985,0,0,1,.183-1.137,3.362,3.362,0,0,1,.323-.822,5.841,5.841,0,0,1,.5-.73,3.036,3.036,0,0,1,2.374-1.2,1.889,1.889,0,0,1,1.315.557,2.777,2.777,0,0,1,.586,2.052V43.429h-1.089a.773.773,0,0,0,0,1.546h7.931a.773.773,0,0,0,0-1.546h-1.05v-11.1a3.336,3.336,0,0,1,.353-1.593,3.479,3.479,0,0,1,.875-1.086,3.992,3.992,0,0,1,1.083-.631,2.679,2.679,0,0,1,.887-.2,1.807,1.807,0,0,1,1.615.67,4,4,0,0,1,.522,2.253V43.429h-1.05a.773.773,0,0,0,0,1.546h8.167a.773.773,0,0,0,0-1.546" transform="translate(-62.837 -16.219)" fill="#151e54"/>
      <path id="Path_3108" data-name="Path 3108" d="M203.257,28.5a7.6,7.6,0,0,0-2.549-1.375,9.016,9.016,0,0,0-6.466.344A10.1,10.1,0,0,0,191.3,29.5a9.452,9.452,0,0,0-1.977,2.9,8.365,8.365,0,0,0-.723,3.377,9.374,9.374,0,0,0,.762,3.854,8.345,8.345,0,0,0,2.111,2.893,9.281,9.281,0,0,0,3.136,1.8,11.761,11.761,0,0,0,3.833.614,8.11,8.11,0,0,0,3.022-.509,7.266,7.266,0,0,0,2.109-1.26,6.282,6.282,0,0,0,1.353-1.642,7.972,7.972,0,0,0,.514-1.1.748.748,0,1,0-1.407-.509c-.049.137-.117.305-.21.513a5.24,5.24,0,0,1-.905,1.335,5.891,5.891,0,0,1-1.578,1.207,4.842,4.842,0,0,1-2.329.51,3.863,3.863,0,0,1-2.363-.623,4.126,4.126,0,0,1-1.292-1.65,7.3,7.3,0,0,1-.568-2.348c-.074-.9-.112-1.816-.112-2.709V34.924h11.183v-.48a7.94,7.94,0,0,0-.732-3.529,7.228,7.228,0,0,0-1.869-2.415m-7.136.166a2.51,2.51,0,0,1,1.677-.49,1.747,1.747,0,0,1,1.118.309,1.922,1.922,0,0,1,.594.82,3.741,3.741,0,0,1,.236,1.075q.037.589.037.994v2.06H194.7c.025-.493.062-1.011.109-1.544A7.341,7.341,0,0,1,195.215,30a3.191,3.191,0,0,1,.905-1.338" transform="translate(-114.324 -16.177)" fill="#151e54"/>
      <path id="Path_3109" data-name="Path 3109" d="M284.947,42.868h0a.742.742,0,0,0-.935-.037,1.428,1.428,0,0,1-.956.341c-.514-.058-.619-.582-.619-1.354V32.5a6.061,6.061,0,0,0-.6-2.833,4.808,4.808,0,0,0-1.626-1.811,6.319,6.319,0,0,0-2.355-.9,13.706,13.706,0,0,0-5.263.042,8.151,8.151,0,0,0-2.174.819,4.838,4.838,0,0,0-1.6,1.418,3.43,3.43,0,0,0-.632,2.021,2.571,2.571,0,0,0,.265,1.243,2.122,2.122,0,0,0,.654.745,2.087,2.087,0,0,0,.9.342,5.937,5.937,0,0,0,.837.061c.182,0,.409-.006.681-.019a2.668,2.668,0,0,0,.913-.206,2.079,2.079,0,0,0,.8-.606,1.812,1.812,0,0,0,.371-1.185,4.512,4.512,0,0,0-.041-.474c-.026-.2-.05-.408-.074-.632s-.052-.438-.077-.629a3.1,3.1,0,0,1-.033-.332,1.125,1.125,0,0,1,.413-1.042,2.346,2.346,0,0,1,1.253-.323,1.515,1.515,0,0,1,1.432.593,3.1,3.1,0,0,1,.423,1.6v2.292a2.371,2.371,0,0,1-.163.966,1.571,1.571,0,0,1-.568.613,5.75,5.75,0,0,1-1.367.619c-.625.209-1.439.46-2.493.769-.626.2-1.245.41-1.84.625a6.791,6.791,0,0,0-1.7.89,4.581,4.581,0,0,0-1.256,1.382,4.018,4.018,0,0,0-.5,2.064,3.623,3.623,0,0,0,.568,2.048,3.886,3.886,0,0,0,1.452,1.3,6.921,6.921,0,0,0,1.856.646,9.879,9.879,0,0,0,1.934.2,7.475,7.475,0,0,0,3.257-.576,3.562,3.562,0,0,0,1.4-1.326,3.278,3.278,0,0,0,.978,1.133,5.913,5.913,0,0,0,3.336.913,4.75,4.75,0,0,0,3.179-1,.7.7,0,0,0,.222-.528.762.762,0,0,0-.257-.56m-10.2.165a1.655,1.655,0,0,1-1.055-.29,2.023,2.023,0,0,1-.594-.776,3.333,3.333,0,0,1-.263-1.02c-.036-.384-.055-.723-.055-1.008a3.678,3.678,0,0,1,.307-1.628,3.392,3.392,0,0,1,.807-1.055,4.7,4.7,0,0,1,1.16-.733c.479-.214.958-.434,1.447-.666q.226-.113.4-.218v3.851a6.249,6.249,0,0,1-.206,1.727,3.138,3.138,0,0,1-.517,1.076,1.979,1.979,0,0,1-.68.563,1.729,1.729,0,0,1-.752.179" transform="translate(-161.862 -16.2)" fill="#151e54"/>
      <path id="Path_3110" data-name="Path 3110" d="M70.686,42.868a.742.742,0,0,0-.935-.037,1.434,1.434,0,0,1-.956.341c-.514-.058-.619-.582-.619-1.354V32.5a6.06,6.06,0,0,0-.6-2.833,4.808,4.808,0,0,0-1.626-1.811,6.319,6.319,0,0,0-2.355-.9A13.706,13.706,0,0,0,58.332,27a8.151,8.151,0,0,0-2.174.819,4.838,4.838,0,0,0-1.6,1.418,3.43,3.43,0,0,0-.632,2.021A2.571,2.571,0,0,0,54.19,32.5a2.123,2.123,0,0,0,.654.745,2.086,2.086,0,0,0,.9.342,5.938,5.938,0,0,0,.837.061c.182,0,.409-.006.681-.019a2.668,2.668,0,0,0,.913-.206,2.078,2.078,0,0,0,.8-.606,1.812,1.812,0,0,0,.371-1.185,4.513,4.513,0,0,0-.041-.474c-.026-.2-.05-.408-.074-.632s-.052-.438-.077-.629a3.105,3.105,0,0,1-.033-.332,1.125,1.125,0,0,1,.413-1.042,2.346,2.346,0,0,1,1.253-.323,1.515,1.515,0,0,1,1.432.593,3.1,3.1,0,0,1,.423,1.6v2.292a2.377,2.377,0,0,1-.163.966,1.571,1.571,0,0,1-.568.613,5.749,5.749,0,0,1-1.367.619c-.625.209-1.439.46-2.493.769-.626.2-1.245.41-1.84.625a6.792,6.792,0,0,0-1.7.89,4.582,4.582,0,0,0-1.256,1.382,4.018,4.018,0,0,0-.5,2.064,3.623,3.623,0,0,0,.568,2.048,3.886,3.886,0,0,0,1.452,1.3,6.921,6.921,0,0,0,1.856.646,9.878,9.878,0,0,0,1.934.2,7.475,7.475,0,0,0,3.257-.576,3.562,3.562,0,0,0,1.4-1.326,3.278,3.278,0,0,0,.978,1.133,5.914,5.914,0,0,0,3.336.913,4.746,4.746,0,0,0,3.179-1,.7.7,0,0,0,.222-.528.762.762,0,0,0-.257-.56Zm-10.2.165a1.655,1.655,0,0,1-1.055-.29,2.023,2.023,0,0,1-.594-.776,3.335,3.335,0,0,1-.263-1.02c-.036-.384-.055-.723-.055-1.008a3.679,3.679,0,0,1,.307-1.628,3.392,3.392,0,0,1,.807-1.055,4.7,4.7,0,0,1,1.16-.733c.478-.214.958-.434,1.447-.666q.226-.113.4-.218v3.851a6.248,6.248,0,0,1-.206,1.727,3.137,3.137,0,0,1-.517,1.076,1.979,1.979,0,0,1-.68.563,1.729,1.729,0,0,1-.752.179" transform="translate(-31.982 -16.2)" fill="#151e54"/>
      <path id="Path_3111" data-name="Path 3111" d="M247.621,6.607a2.629,2.629,0,0,0-4.482,1.853,2.629,2.629,0,1,0,4.482-1.853" transform="translate(-147.385 -3.534)" fill="#f77d0f"/>
      <path id="Path_3112" data-name="Path 3112" d="M246.483,43.549h-1.3V26.842h-6.838a.738.738,0,0,0,0,1.477h1.3v15.23h-1.3a.738.738,0,0,0,0,1.477h8.142a.738.738,0,0,0,0-1.477" transform="translate(-144.029 -16.271)" fill="#151e54"/>
      <path id="Path_3113" data-name="Path 3113" d="M267.806,9.47a.5.5,0,0,0-.351.14,1.7,1.7,0,0,1-.514.338,1.613,1.613,0,0,1-2.1-.863,1.559,1.559,0,0,1-.125-.621,1.586,1.586,0,0,1,.126-.627,1.61,1.61,0,0,1,.345-.516,1.607,1.607,0,0,1,1.751-.35,1.923,1.923,0,0,1,.511.315.5.5,0,0,0,.354.143h0a.5.5,0,0,0,.353-.143.411.411,0,0,0,.111-.439.574.574,0,0,0-.158-.266c-.072-.064-.163-.139-.273-.221a2.784,2.784,0,0,0-.393-.243,2.911,2.911,0,0,0-.493-.193,2.172,2.172,0,0,0-.616-.083h0a2.816,2.816,0,0,0-1.035.232,2.7,2.7,0,0,0-.83.56,2.571,2.571,0,0,0-.751,1.832,2.6,2.6,0,0,0,.205,1.037,2.552,2.552,0,0,0,.563.822,2.685,2.685,0,0,0,2.456.664,2.794,2.794,0,0,0,.515-.178,2.334,2.334,0,0,0,.4-.235,2.37,2.37,0,0,0,.267-.224.549.549,0,0,0,.17-.372.481.481,0,0,0-.141-.366.5.5,0,0,0-.355-.143" transform="translate(-159.861 -3.541)" fill="#151e54"/>
      <path id="Path_3114" data-name="Path 3114" d="M281.31,6.618a2.744,2.744,0,0,0-.823-.564,2.418,2.418,0,0,0-1-.212h0a2.832,2.832,0,0,0-1.034.232,2.691,2.691,0,0,0-.83.56,2.574,2.574,0,0,0-.751,1.831,2.6,2.6,0,0,0,.205,1.037,2.538,2.538,0,0,0,.563.822,2.622,2.622,0,0,0,3.687-.033,2.746,2.746,0,0,0,.555-.823,2.55,2.55,0,0,0-.005-2.021,2.722,2.722,0,0,0-.565-.829m-.348,2.468a1.647,1.647,0,0,1-.345.513,1.609,1.609,0,0,1-2.277,0,1.65,1.65,0,0,1-.346-.513,1.559,1.559,0,0,1-.125-.621,1.577,1.577,0,0,1,.126-.627,1.6,1.6,0,0,1,.345-.516,1.63,1.63,0,0,1,.513-.346,1.553,1.553,0,0,1,.621-.125,1.6,1.6,0,0,1,.627.126,1.589,1.589,0,0,1,.861.861,1.592,1.592,0,0,1,.126.627,1.554,1.554,0,0,1-.126.621" transform="translate(-167.832 -3.541)" fill="#151e54"/>
      <path id="Path_3115" data-name="Path 3115" d="M297.913,6.933a1.82,1.82,0,0,0-.969-.969,1.85,1.85,0,0,0-1.569.062,1.958,1.958,0,0,0-.478.366,1.828,1.828,0,0,0-2.621-.038,1.792,1.792,0,0,0-.387.582,1.849,1.849,0,0,0-.139.714v2.9a.481.481,0,0,0,.145.353.5.5,0,0,0,.353.144h0a.5.5,0,0,0,.355-.143.486.486,0,0,0,.145-.354V7.65a.8.8,0,0,1,.064-.32.913.913,0,0,1,.178-.27.805.805,0,0,1,.58-.243.781.781,0,0,1,.574.237.859.859,0,0,1,.26.6v2.9a.484.484,0,0,0,.145.354.5.5,0,0,0,.708,0,.486.486,0,0,0,.145-.354V7.65a.789.789,0,0,1,.065-.321.909.909,0,0,1,.177-.269.813.813,0,0,1,.26-.178.845.845,0,0,1,.642,0,.856.856,0,0,1,.447.447.807.807,0,0,1,.065.322v2.9a.5.5,0,1,0,1,0V7.65a1.782,1.782,0,0,0-.146-.717" transform="translate(-176.852 -3.527)" fill="#151e54"/>
      <path id="Path_3116" data-name="Path 3116" d="M169.33,1.433a.7.7,0,0,0,.511-.211.683.683,0,0,0,.211-.5.7.7,0,0,0-.211-.511A.7.7,0,0,0,169.33,0a.683.683,0,0,0-.5.211.7.7,0,0,0-.211.511.682.682,0,0,0,.211.5.682.682,0,0,0,.5.211" transform="translate(-102.213 0)" fill="#f77d0f"/>
      <path id="Path_3117" data-name="Path 3117" d="M165.027,1.433a.7.7,0,0,0,.511-.211.683.683,0,0,0,.211-.5.7.7,0,0,0-.211-.511.724.724,0,0,0-1.022,0,.7.7,0,0,0-.211.511.682.682,0,0,0,.211.5.694.694,0,0,0,.511.211" transform="translate(-99.598 0)" fill="#f77d0f"/>
      <path id="Path_3118" data-name="Path 3118" d="M179.059,21.235a.682.682,0,0,0-.5.211.724.724,0,0,0,0,1.022.683.683,0,0,0,.5.211.722.722,0,1,0,0-1.444" transform="translate(-108.11 -12.872)" fill="#f77d0f"/>
      <path id="Path_3119" data-name="Path 3119" d="M174.756,21.235a.721.721,0,1,0,.511.211.695.695,0,0,0-.511-.211" transform="translate(-105.495 -12.872)" fill="#f77d0f"/>
      <path id="Path_3120" data-name="Path 3120" d="M188.972,6.454a2.888,2.888,0,0,0-2.166-.844,6.97,6.97,0,0,0-1.921.322V7.009a8.263,8.263,0,0,1,1.577-.233,2.04,2.04,0,0,1,1.394.444,1.543,1.543,0,0,1,.505,1.222v1a.245.245,0,0,1-.278.278h-4.7a.277.277,0,0,1-.2-.089.352.352,0,0,1-.055-.189V7.664a1.886,1.886,0,0,0-.733-1.6,2.8,2.8,0,0,0-3.276.178,2.58,2.58,0,0,0-.811,2.033,3.744,3.744,0,0,0,.267,1.444h-3.687A2.584,2.584,0,0,1,175.5,8.7a3.265,3.265,0,0,1,.933-.689l.133-.311a3.021,3.021,0,0,0-1.288-1.61,2.866,2.866,0,0,0-1.588-.467,3.207,3.207,0,0,0-1.61.422A2.955,2.955,0,0,0,170.7,7.7l.122.311a2.782,2.782,0,0,1,.989.744,2.722,2.722,0,0,1,.566.966H168.67V5.743h-1.344V9.408a.286.286,0,0,1-.1.222.26.26,0,0,1-.222.089h-1.91a.222.222,0,0,1-.178-.078.248.248,0,0,1-.078-.2v-4h-.667l-.477.367a2.943,2.943,0,0,0-1.155-.245,2.352,2.352,0,0,0-1.744.722,2.768,2.768,0,0,0-.777,2.01,2.75,2.75,0,0,0,.844,2.111,2.213,2.213,0,0,0,1.51.555,2.161,2.161,0,0,0,1.41-.522,1.275,1.275,0,0,0,.922.411h2.765a1.177,1.177,0,0,0,.944-.455h.022l.411.455h4.176a.767.767,0,0,0,.589-.289h.056a.747.747,0,0,0,.566.289h4.487l.311-.378h.022a2.186,2.186,0,0,0,1.644.711,1.749,1.749,0,0,0,1.444-.689,1.165,1.165,0,0,0,.855.356h5.52a1.163,1.163,0,0,0,.888-.4,1.239,1.239,0,0,0,.311-.822V8.364a2.635,2.635,0,0,0-.744-1.91M163.483,9.674a2.19,2.19,0,0,1-.833.178,1.155,1.155,0,0,1-.938-.422,1.7,1.7,0,0,1-.35-1.122,1.651,1.651,0,0,1,.389-1.139,1.263,1.263,0,0,1,.989-.439,2.139,2.139,0,0,1,.744.145Zm10.895-1.455a3.424,3.424,0,0,0-.721,1.189h-.044a3.485,3.485,0,0,0-.689-1.133,2.375,2.375,0,0,0-.8-.666,1.573,1.573,0,0,1,.688-.666,1.956,1.956,0,0,1,.844-.189,1.736,1.736,0,0,1,.766.167,1.656,1.656,0,0,1,.722.688,2.4,2.4,0,0,0-.766.611m7.4,1.377a1.33,1.33,0,0,1-.933.455,1,1,0,0,1-.855-.489,2.2,2.2,0,0,1-.334-1.266,1.8,1.8,0,0,1,.328-1.133,1.048,1.048,0,0,1,.872-.422A.858.858,0,0,1,181.52,7a.9.9,0,0,1,.255.666Z" transform="translate(-96.999 -3.299)" fill="#f77d0f"/>
      <path id="Path_3121" data-name="Path 3121" d="M226.013,21.235a.682.682,0,0,0-.5.211.724.724,0,0,0,0,1.022.683.683,0,0,0,.5.211.722.722,0,1,0,0-1.444" transform="translate(-136.573 -12.872)" fill="#f77d0f"/>
      <path id="Path_3122" data-name="Path 3122" d="M20.556,10.351V22.608A9.7,9.7,0,0,1,4.664,30.073a6.235,6.235,0,0,0,7.178-6.468V10.351a4.359,4.359,0,1,1,8.714,0" transform="translate(-2.827 -3.552)" fill="#151e54"/>
      <path id="Path_3123" data-name="Path 3123" d="M2.283,54.711a6.046,6.046,0,0,0,5.1-2.677c.005-.081.012-.161.012-.243a3.7,3.7,0,1,0-6.061,2.848,6.169,6.169,0,0,0,.944.072" transform="translate(0 -29.152)" fill="#f77d0f"/>
    </g>
  </g>
</svg>
