<svg width="16" height="16" viewBox="0 0 16 16" fill="none" xmlns="http://www.w3.org/2000/svg">
<path fill-rule="evenodd" clip-rule="evenodd" d="M11.6094 13.1162H12.3828V13.527H11.6094V13.1162ZM3.61718 13.1162H4.39064V13.527H3.61718V13.1162ZM2.3985 12.3717V3.74457C2.3985 3.58432 2.46551 3.46217 2.60942 3.46217H13.3906C13.5345 3.46217 13.6015 3.58432 13.6015 3.74457V12.3717C13.6015 12.5318 13.5345 12.6541 13.3906 12.6541H2.60942C2.46551 12.6541 2.3985 12.5318 2.3985 12.3717ZM2 3.61617V12.5001C2 12.9034 2.3546 13.1162 2.75 13.1162H3.19536C3.19536 14.1629 3.01117 13.9892 4.53128 13.9892C4.89806 13.9892 4.81252 13.6511 4.81252 13.1162H11.1875C11.1875 14.1557 11.004 13.9892 12.5703 13.9892C12.8878 13.9892 12.8046 13.5687 12.8046 13.1162C13.1259 13.1162 13.5366 13.1579 13.7698 12.9668C13.8752 12.8804 14 12.6932 14 12.5001V3.61617C14 3.42797 13.892 3.26718 13.7951 3.17309C13.6781 3.05966 13.5326 3 13.3203 3H2.67974C2.47608 3 2.33268 3.05447 2.21741 3.16111C2.11476 3.25602 2 3.42153 2 3.61617ZM3.61718 11.1392V4.97704C3.61718 4.824 3.71179 4.77161 3.85154 4.77161H10.9766C11.0899 4.77161 11.1875 4.84453 11.1875 4.97704V11.1649C11.1875 11.2206 11.1412 11.2761 11.1014 11.3017C11.0594 11.3289 10.9909 11.3446 10.9296 11.3446H3.87502C3.73553 11.3446 3.61718 11.2952 3.61718 11.1392ZM3.19536 4.95134V11.1649C3.19536 11.3981 3.35682 11.6278 3.53023 11.7223C3.5988 11.7598 3.68557 11.7811 3.7813 11.7811H11.0468C11.3491 11.7811 11.6094 11.4534 11.6094 11.1135V5.00268C11.6094 4.73758 11.4859 4.53481 11.3043 4.41257C11.2453 4.3729 11.1656 4.33514 11.0703 4.33514H3.73444C3.45919 4.33514 3.19536 4.64646 3.19536 4.95134ZM5.3516 9.16218H9.45312C9.41977 9.31909 9.32243 9.41609 9.28908 9.57304H5.51566L5.3516 9.16218ZM4.39064 9.16218H4.88286C4.90749 9.27803 5.0413 9.53511 5.09376 9.64998C5.15804 9.79082 5.22151 10.0351 5.39846 10.0351H9.40626C9.57017 10.0351 9.61015 9.84506 9.71088 9.62437C9.74792 9.54321 9.78018 9.47319 9.82025 9.38466C9.94518 9.10899 9.83798 9.16218 10.414 9.16218C10.414 8.85773 10.4538 8.69998 10.3438 8.69998H4.39064V9.16218ZM12.4062 9.82977C12.4062 9.52564 12.7813 9.50536 12.7813 9.82977C12.7813 10.0957 12.4062 10.0551 12.4062 9.82977ZM12.5937 10.4716C13.2702 10.4716 13.4282 9.46606 12.8428 9.19743C12.5917 9.08215 12.3385 9.15587 12.1703 9.3402C11.9319 9.60133 11.9361 10.0253 12.1648 10.274C12.2643 10.3823 12.4039 10.4716 12.5937 10.4716ZM12.4062 6.31217C12.4062 6.07175 12.7813 5.94481 12.7813 6.36351C12.7813 6.5585 12.4062 6.5822 12.4062 6.31217ZM13.2031 6.31217C13.2031 5.52684 12.2477 5.42297 12.0333 6.05769C11.7838 6.79658 12.6856 7.31091 13.0866 6.69813C13.1524 6.59754 13.2031 6.48728 13.2031 6.31217ZM12.4062 8.05808C12.4062 7.76689 12.7813 7.81506 12.7813 8.00675C12.7813 8.09228 12.792 8.26351 12.5937 8.26351C12.4804 8.26351 12.4062 8.18234 12.4062 8.05808ZM11.9843 8.05808C11.9843 8.59035 12.6162 8.96733 13.0105 8.54041C13.622 7.87846 12.6788 6.97826 12.1654 7.58896C12.0865 7.6829 11.9843 7.8897 11.9843 8.05808ZM5.86722 6.79998C5.86722 7.22661 6.1016 7.22652 6.1016 7.59597C6.1016 7.75905 5.86722 7.91112 5.86722 8.28921H6.28904C6.29266 8.11241 6.36254 8.0665 6.42512 7.95039C6.72334 7.39736 6.28904 7.0493 6.28904 6.8257C6.28904 6.52487 6.52342 6.54766 6.52342 6.08113H6.1016C6.1016 6.34055 5.86722 6.44687 5.86722 6.79998ZM7.32034 7.54464C7.32034 7.6499 6.90229 8.28921 7.13282 8.28921H7.48438C7.48807 8.10862 7.54519 8.08364 7.61501 7.97013C7.75744 7.73874 7.75479 7.34699 7.61522 7.11875C7.54917 7.01066 7.48438 6.97518 7.48438 6.79998C7.48438 6.57242 7.71876 6.55536 7.71876 6.08113H7.32034C7.25112 6.40634 7.07984 6.42471 7.07156 6.80283C7.06307 7.19144 7.32034 7.34172 7.32034 7.54464ZM8.28124 6.72295C8.28124 6.96662 8.26765 7.00153 8.38233 7.22846C8.43562 7.33404 8.51562 7.392 8.51562 7.54464C8.51562 7.81968 8.28124 7.77579 8.28124 8.28921H8.67966C8.7007 8.01242 8.91102 7.96448 8.9249 7.56363C8.93833 7.17673 8.67966 7.01245 8.67966 6.8257C8.67966 6.68131 8.77338 6.57701 8.83037 6.47725C8.90761 6.34192 8.90298 6.2433 8.9375 6.08113H8.51562C8.49539 6.34768 8.28124 6.43458 8.28124 6.72295ZM9.78122 5.64458H10.3906V6.31217H10.8124V5.49057C10.8124 5.36702 10.7482 5.20808 10.6484 5.20808H9.78122V5.64458ZM11.9843 5.20808H13.2031V4.77161H11.9843V5.20808ZM10.3906 6.79998V7.18514H10.8124C10.8124 6.63029 10.8918 6.72295 10.461 6.72295C10.4069 6.72295 10.3906 6.7408 10.3906 6.79998Z" fill="#747476"/>
</svg>
