<?xml version="1.0" encoding="utf-8"?>
<!-- Svg Vector Icons : http://www.onlinewebfonts.com/icon -->
<!DOCTYPE svg PUBLIC "-//W3C//DTD SVG 1.1//EN" "http://www.w3.org/Graphics/SVG/1.1/DTD/svg11.dtd">
<svg version="1.1" xmlns="http://www.w3.org/2000/svg" xmlns:xlink="http://www.w3.org/1999/xlink" x="0px" y="0px" viewBox="0 0 1000 1000" enable-background="new 0 0 1000 1000" xml:space="preserve">
<metadata> Svg Vector Icons : http://www.onlinewebfonts.com/icon </metadata>
<g><path d="M293.6,439.8h412.9v34.4H293.6V439.8z"/><path d="M293.6,577.4h412.9v34.4H293.6V577.4z"/><path d="M293.6,714.9h275.3v34.4H293.6V714.9z"/><path d="M845,955.6H155V130.3h241.7v24.6c-53.7,30.6-92.6,84.1-103.2,147.4h412.9C695.9,239,657,185.5,603.2,154.9v-24.6H845V955.6z M431.2,174.9v-20v-41.7c0-37.9,30.9-68.8,68.8-68.8c37.9,0,68.8,30.9,68.8,68.8v41.7v20l17.4,9.9c33.8,19.2,59.7,48.4,74.6,83.1H339.3c14.9-34.7,40.8-63.9,74.6-83.1L431.2,174.9z M601.7,96c-8.2-48.8-50.5-86-101.7-86c-51.1,0-93.5,37.2-101.7,86H120.6v894h758.7V96H601.7z"/><path d="M533,787.7l76,76l190-190l25.7,33.5L609,921.8L506.1,819L533,787.7z"/></g>
</svg>