<svg width="12" height="12" viewBox="0 0 12 12" fill="none" xmlns="http://www.w3.org/2000/svg">
<path d="M1.75 1C1.686 1 1.62224 1.02474 1.57324 1.07324C1.47574 1.17074 1.47574 1.32926 1.57324 1.42676L2.54688 2.40039C1.59751 3.30996 1 4.58426 1 6C1 8.75567 3.24433 11 6 11C8.75567 11 11 8.75567 11 6C11 3.43206 9.05324 1.30879 6.55469 1.03223C6.53815 1.03042 6.52152 1.02944 6.50488 1.0293C6.3766 1.02806 6.25274 1.07618 6.15894 1.1637C6.06514 1.25121 6.00856 1.37144 6.0009 1.4995C5.99325 1.62756 6.03511 1.75367 6.11783 1.85173C6.20055 1.9498 6.31779 2.01232 6.44531 2.02637C8.44576 2.2478 10 3.93594 10 6C10 8.21533 8.21533 10 6 10C3.78467 10 2 8.21533 2 6C2 4.85527 2.48376 3.8322 3.25195 3.10547L4.07324 3.92676C4.17074 4.02426 4.32926 4.02426 4.42676 3.92676C4.47576 3.87826 4.5 3.814 4.5 3.75V1.5C4.5 1.36739 4.44732 1.24021 4.35355 1.14645C4.25979 1.05268 4.13261 1 4 1H1.75Z" fill="#FDAA38"/>
</svg>
