<svg xmlns="http://www.w3.org/2000/svg" width="16.687" height="16.602" viewBox="0 0 16.687 16.602">
  <path id="Path_3454" data-name="Path 3454" d="M8.587,2.043a1,1,0,0,1,1.826,0l1.709,3.825a1,1,0,0,0,.782.583l4.069.538a1,1,0,0,1,.571,1.7l-3.057,3.014a1,1,0,0,0-.282.891l.778,4.273A1,1,0,0,1,13.5,17.916L10,15.891a1,1,0,0,0-1,0L5.5,17.916a1,1,0,0,1-1.485-1.045L4.794,12.6a1,1,0,0,0-.282-.891L1.456,8.693a1,1,0,0,1,.571-1.7L6.1,6.452a1,1,0,0,0,.782-.583Z" transform="translate(-1.157 -1.451)" fill="#f77d0f"/>
</svg>
