<svg width="16" height="16" viewBox="0 0 16 16" fill="none" xmlns="http://www.w3.org/2000/svg">
<g clip-path="url(#clip0_205_506)">
<path d="M5.7211 5.51798L5.46105 5.55589L1.40272 6.14756L1.40235 6.14761C1.08522 6.19361 0.956755 6.58633 1.18772 6.81122L1.18787 6.81136L4.12398 9.67247L4.31234 9.85603L4.26781 10.1152L3.57342 14.1566C3.51892 14.4751 3.85501 14.7152 4.13526 14.5666L4.13683 14.5658L7.76739 12.6574L8.00003 12.5351L8.23266 12.6574L11.8632 14.5658L11.8633 14.5658C12.147 14.715 12.4806 14.472 12.4266 14.1566C12.4266 14.1566 12.4266 14.1566 12.4266 14.1566L11.7322 10.1152L11.6877 9.85603L11.8761 9.67247L14.8122 6.81136L14.8123 6.81122C15.0433 6.58633 14.9148 6.19361 14.5977 6.14761L14.5973 6.14756L10.539 5.55589L10.279 5.51798L10.1627 5.28229L8.34928 1.60543C8.34922 1.60531 8.34916 1.60519 8.3491 1.60507C8.2051 1.3153 7.79304 1.31765 7.65123 1.60451L5.7211 5.51798ZM5.7211 5.51798L5.83734 5.28229L7.65114 1.6047L5.7211 5.51798Z" stroke="#747476"/>
</g>
<defs>
<clipPath id="clip0_205_506">
<rect width="16" height="16" fill="white"/>
</clipPath>
</defs>
</svg>
