<svg xmlns="http://www.w3.org/2000/svg" width="179.784" height="173.151" viewBox="0 0 179.784 173.151">
  <g id="Group_568" data-name="Group 568" transform="translate(-92.183 -48.193)">
    <g id="Group_563" data-name="Group 563" transform="translate(94.819 57.462)">
      <g id="Group_564" data-name="Group 564" transform="translate(0 0)">
        <path id="Path_3033" data-name="Path 3033" d="M42.887,20.716c2.254-.62,4.133.766,4.3,3.331a15.77,15.77,0,0,1-.592,4.873c-.554,2.143-1.391,4.212-2.308,6.906,2.178,0,4.114-.129,6.027.028,3.578.294,5.794-.787,7.511-4.373A55.289,55.289,0,0,1,72.478,12.613c1.631-1.35,3.423-2.786,5.679-1.568,2.22,1.2,2.73,3.453,2.634,5.763-.32,7.69-4.283,13.16-10.747,16.934-1.794,1.048-3.868,1.605-5.753,2.512a4.272,4.272,0,0,0-2.135,1.68c-2,4.954-3.829,9.976-5.7,14.98a2.638,2.638,0,0,0,.034.757c.976-1.047,1.783-2,2.686-2.855a16.523,16.523,0,0,1,2.662-2.156c2.5-1.522,5.3-.861,6.4,1.822a9.847,9.847,0,0,1,.724,5.507,84.508,84.508,0,0,1-3.337,10.321c-1.234,3.412-2.649,6.756-3.933,10.15-.487,1.285-.829,2.625-1.237,3.941l.462.225a19.352,19.352,0,0,0,1.123-1.807c3.759-7.793,7.57-15.562,11.213-23.41,1.917-4.131,4.357-7.778,8.132-10.391,4.726-3.27,8.216-2.946,12.238,1.114l3.546-4.589c2.774.425,4.028,1.8,3.788,4.169a15.734,15.734,0,0,1-1.054,3.839c-2.584,6.908-5.225,13.8-7.815,20.7a4.724,4.724,0,0,0-.19,2.557c.391-.521.826-1.014,1.165-1.567,5.12-8.357,10.182-16.75,15.368-25.065a43.427,43.427,0,0,1,4.631-6.035c1.427-1.581,2.892-1.539,4.393-.309,1.565,1.283,1.686,2.351.545,4.335q-4.124,7.171-8.224,14.355l.564.377q.536-.781,1.071-1.562c5.266-7.7,11.025-14.97,18.243-20.969a20.957,20.957,0,0,1,1.822-1.387c1.488-.984,2.984-2.179,4.873-.95a5.107,5.107,0,0,1,2.478,5.58,30.46,30.46,0,0,1-2.421,7.19c-3.118,6.124-6.5,12.115-9.754,18.168-.742,1.38-1.408,2.8-2.109,4.2l.409.313c.652-.7,1.363-1.35,1.946-2.1,2.3-2.968,4.586-5.952,6.824-8.968a7.184,7.184,0,0,0,1.091-2.207A166.473,166.473,0,0,1,146.647,26.86a7.04,7.04,0,0,0,.288-.8,4.255,4.255,0,0,0-.884-.321c-7.705-.909-15.41-1.825-23.119-2.7-8.815-1-17.541-1.055-25.927,2.5-3.994,1.692-6.487,3.51-8.5,6.466l-2.151-.586c.437-.99.565-2.072,1.159-2.489a55.893,55.893,0,0,1,8.157-5.178c7.31-3.419,15.156-3.731,23.025-3,8.107.753,16.2,1.729,24.27,2.782,3.96.516,6.346-.808,8.364-4.4A47.773,47.773,0,0,1,165.142,3.51a25.025,25.025,0,0,1,6.024-3.2c2.741-.981,4.919.418,5.656,3.226a10.259,10.259,0,0,1-1.549,8.379,26.92,26.92,0,0,1-14.952,11.271,10.329,10.329,0,0,0-6.97,6.319c-3.111,7.386-6.375,14.708-9.567,22.06a1.959,1.959,0,0,0-.077,1.419,16.857,16.857,0,0,1,1.269-1.5c2.674-2.53,5.274-5.153,8.106-7.494a13.324,13.324,0,0,1,4.46-2.077,3.533,3.533,0,0,1,4.317,1.58,3.327,3.327,0,0,1-.248,4.4,31.929,31.929,0,0,1-5.194,4.054,23.16,23.16,0,0,1-3.987,1.658c-.026.208-.1.376-.048.447,3.134,4.159,2.66,8.589.9,13.057-1.074,2.721-2.38,5.351-3.472,8.065a19.805,19.805,0,0,0-.724,3.207l.613.465a20.556,20.556,0,0,0,3.46-2.361c6.349-6.523,12.615-13.127,18.911-19.7.3-.316.635-.6,1.108-1.05l2.012,1.547c-1.261,1.584-2.3,3.082-3.531,4.4-4.954,5.305-9.932,10.59-14.987,15.8a15.432,15.432,0,0,1-3.961,2.947c-3.523,1.806-7.187-.025-8.126-3.865a16.093,16.093,0,0,1,.634-8.65c1.017-3.347,2.154-6.659,3.088-10.028a4.2,4.2,0,0,0-.852-4.479,16.739,16.739,0,0,0-1.458,1.653c-1.921,2.85-3.791,5.734-5.7,8.591-2.355,3.524-4.078,3.673-6.983.451-1.338,1.8-2.575,3.64-3.987,5.329a31.443,31.443,0,0,1-3.981,4.059,3.22,3.22,0,0,1-4.254.074,4.67,4.67,0,0,1-1.61-3.326,25.807,25.807,0,0,1,1.766-7.947c2.922-6.489,6.227-12.807,9.4-19.181.816-1.638,1.721-3.233,2.584-4.848l-.323-.375c-.639.414-1.309.785-1.911,1.246A69.576,69.576,0,0,0,116.022,55.6c-2.146,3.157-4.165,6.4-6.28,9.58A5.373,5.373,0,0,1,108,67.156a4.8,4.8,0,0,1-3.281.586c-.905-.349-1.572-1.626-2.059-2.634-.3-.613-.055-1.485-.055-2.7a17.051,17.051,0,0,0-1.064,1.371c-2.448,4.1-4.875,8.207-7.329,12.3a15.615,15.615,0,0,1-1.246,1.688,4.189,4.189,0,0,1-4.418,1.583C86.554,78.929,85,77.688,84.872,75.7a87.382,87.382,0,0,1,.222-9.26,9.783,9.783,0,0,0,.144-2.356c-.62.758-1.222,1.532-1.863,2.271-4.607,5.316-7.519,5.343-12.122-.079-.446.928-.854,1.761-1.249,2.6-1.87,3.973-3.7,7.966-5.627,11.91a17.955,17.955,0,0,1-2.046,2.984,3.266,3.266,0,0,1-3.736,1.241,3.086,3.086,0,0,1-2.5-3.029c.18-4.3.031-8.722,1.048-12.842,1.287-5.213,3.6-10.173,5.465-15.242a9.1,9.1,0,0,0,.658-2.506c-7.112,4.859-9.193,12.939-12.7,19.906-2.717.288-3.351-.325-4.025-3.985-.479.86-.783,1.427-1.107,1.983-2.5,4.279-4.941,8.59-7.536,12.809a8.9,8.9,0,0,1-2.625,2.456c-4.007,2.728-8.538,1.329-10.264-3.207-1.439-3.781-1.41-7.743-1-11.7C25.127,59.01,29.289,49.393,34.1,40c.461-.9.927-1.8,1.45-2.811a3.553,3.553,0,0,0-1.064-.5c-6.087-.307-12.2-1-18.256-.7-3.488.173-7,1.729-10.3,3.141-1.687.722-2.923,2.5-4.645,4.048L0,42.374a8.481,8.481,0,0,1,4.961-5.442,34.5,34.5,0,0,1,18.22-3.183c3.871.306,7.726.808,11.6,1.082a3.116,3.116,0,0,0,2.462-.8c2.221-3.705,4.238-7.533,6.3-11.288l-.658-2.026M53.938,37.851H43.23c-3.882,8.368-8.023,16.678-10.646,25.614-1.523,5.186-2.938,10.425-2.539,15.916A26.69,26.69,0,0,0,31,83.46a8.865,8.865,0,0,0,5.244-4.24c3.914-6.973,8.071-13.869,11.238-21.184,2.752-6.354,4.29-13.235,6.458-20.185m10.393-4.809.451.532a58.2,58.2,0,0,0,5.266-2.893c5.2-3.564,8.482-8.347,8.773-14.828a8.364,8.364,0,0,0-.563-2.291l-.79-.138C71.451,18.842,68.1,26.085,64.331,33.042M77.939,66.179a4.54,4.54,0,0,0,1.093-.721c3.9-4.851,7.811-9.689,11.616-14.611.941-1.217.525-3.787-.463-4.9-5.479.959-13,13.268-12.246,20.235m80.7-45.54a27.175,27.175,0,0,0,9.711-5.405,18.616,18.616,0,0,0,5.921-8.257,16.009,16.009,0,0,0,.391-3.118l-.81-.354C166.68,7.235,162.976,14.2,158.642,20.638M148.631,51.853c6.365-1.346,11.17-4.77,11.2-8.114-4.795,1.173-7.929,4.359-11.2,8.114" transform="translate(0 0)" fill="#fff"/>
        <path id="Path_3034" data-name="Path 3034" d="M89.061,250.776c3.276-.346,6.411-.734,9.557-1q17.692-1.5,35.392-2.912c2.815-.222,3.285.1,4.083,2a11.2,11.2,0,0,1-1.414.313q-23.387,2.1-46.779,4.17a4.582,4.582,0,0,0-4,2.649c-6.8,12.173-14.6,23.625-25.07,33-3.817,3.414-8.047,6.281-13.257,7.2-5.628.994-10.583-.317-14.239-4.871-3.678-4.581-4.136-9.75-1.837-15.106,3.163-7.368,9.1-11.984,15.971-15.516,7.491-3.85,15.6-5.78,23.838-7.228a20.843,20.843,0,0,1,3.39-.553c3.282-.021,5.1-1.555,6.246-4.671,1.686-4.593,3.847-9.01,5.794-13.507a6.761,6.761,0,0,0,.623-2.367c-1.806,1.777-3.57,3.6-5.431,5.318-2.149,1.984-4.337,3.932-6.6,5.789-1.948,1.6-4.185,2.234-6.57,1.016-2.414-1.233-3.311-3.449-3.361-6.014-.089-4.544,2.145-8.2,4.846-11.551a27.8,27.8,0,0,1,4.587-4.25,2.922,2.922,0,0,1,3.74-.018c1.213.926,1.215,2.022.474,3.358-2.249,4.054-4.406,8.16-6.566,12.262a19.868,19.868,0,0,0-.843,2.506,16.794,16.794,0,0,0,2.678-1.549c4.645-4.243,9.277-8.5,13.845-12.826a21.608,21.608,0,0,0,5.644-7.828,7.316,7.316,0,0,1,1.13-1.765c.939-1.207,1.851-2.595,3.72-1.986a4.591,4.591,0,0,1,2.811,4.742,8.858,8.858,0,0,1-.625,1.991q-5.794,14.125-11.6,28.243a5.97,5.97,0,0,0-.182.96m-11.49,4.933L77,255.2a10.213,10.213,0,0,0-1.293.107c-4.793,1-9.628,1.842-14.363,3.07-7.473,1.938-14.447,5.028-20.22,10.308-4.072,3.725-7.327,8.022-7.75,13.812-.6,8.182,6.173,13.256,13.748,10.236a26.868,26.868,0,0,0,5.8-3.249c5.691-4.149,10.047-9.586,13.794-15.447,3.822-5.98,7.255-12.209,10.858-18.33" transform="translate(-18.591 -132.627)" fill="#fff"/>
        <path id="Path_3035" data-name="Path 3035" d="M239.144,211.55c2.812-.683,5.539-.69,6.962-3.6a10.966,10.966,0,0,1,2.419-2.923,3.147,3.147,0,0,1,4.2-.351,2.96,2.96,0,0,1,.994,4.054c-.98,2-2.182,3.884-3.148,5.886-1.616,3.351-3.12,6.755-4.671,10.137l.552.409a6.944,6.944,0,0,0,1.209-.586,31.047,31.047,0,0,0,8.224-8.889c2.689-4.449,5.854-8.616,8.909-12.836.718-.992,1.717-2.084,3.223-1.349a3.427,3.427,0,0,1,2.18,3.861,19.3,19.3,0,0,1-1.915,5.336c-2.865,5.1-5.938,10.089-8.887,15.146-.63,1.081-1.073,2.27-1.6,3.41l.372.419a15.472,15.472,0,0,0,2.527-1.622c3.086-2.932,6.119-5.919,9.126-8.932,1.434-1.436,2.365-1.4,3.653.8-3.032,3.088-6.147,6.321-9.341,9.473a18.549,18.549,0,0,1-3.186,2.422c-3.718,2.336-7.332.745-8.19-3.569-.157-.787-.23-1.591-.377-2.632-1.219.895-2.276,1.673-3.336,2.447a4.852,4.852,0,0,1-5.383.578,4.537,4.537,0,0,1-2.633-4.7c.261-2.583.745-5.145,1.186-7.706a21.208,21.208,0,0,1,.692-2.368c-4.335.123-4.665.422-5.9,3.381a42.137,42.137,0,0,1-9.832,14.407,21.587,21.587,0,0,1-1.759,1.464c-2.256,1.735-4.722,2.631-7.469,1.339a7.54,7.54,0,0,1-4.312-6.763c-.422-7.414,2.535-13.571,7.928-18.472,3.048-2.769,6.127-2.013,7.348,1.654-4.191,6.034-8.382,12.321-8.494,20.348,6.9-3.6,10.585-9.824,13.879-16.33-.218-.273-.275-.414-.376-.463-4.94-2.387-6.415-7.349-3.582-12.068a4.092,4.092,0,0,1,6.346-1.324c2.583,1.86,3.054,4.544,2.8,7.478-.08.925-.2,1.847-.335,3.042m-3.744.375c.694-2.939,1.891-5.8.512-8.835-2.784.466-4.375,3.236-4,6.388.247,2.079,1,2.681,3.489,2.447" transform="translate(-131.946 -123.583)" fill="#fff"/>
      </g>
    </g>
    <g id="Group_565" data-name="Group 565" transform="matrix(0.966, -0.259, 0.259, 0.966, 90.594, 152.57)">
      <path id="Path_3036" data-name="Path 3036" d="M0,0A12.378,12.378,0,0,0,2.15,6.888C3.291,8.355,8.812,8.3,8.381,9.919c.337.168-7.916,3.537-6.231,9.768" transform="translate(7.676 0)" fill="none" stroke="#48b0ff" stroke-linecap="round" stroke-width="2"/>
      <path id="Path_3037" data-name="Path 3037" d="M5.435,0H0" transform="translate(0 10.87)" fill="none" stroke="#48b0ff" stroke-linecap="round" stroke-width="2"/>
    </g>
    <g id="Group_566" data-name="Group 566" transform="translate(244.432 190.862) rotate(-135)">
      <path id="Path_3036-2" data-name="Path 3036" d="M0,0A12.378,12.378,0,0,0,2.15,6.888C3.291,8.355,8.812,8.3,8.381,9.919c.337.168-7.916,3.537-6.231,9.768" transform="translate(7.676)" fill="none" stroke="#42cc8c" stroke-linecap="round" stroke-width="2"/>
      <path id="Path_3037-2" data-name="Path 3037" d="M5.435,0H0" transform="translate(0 10.87)" fill="none" stroke="#42cc8c" stroke-linecap="round" stroke-width="2"/>
    </g>
    <g id="Group_567" data-name="Group 567" transform="matrix(-0.53, 0.848, -0.848, -0.53, 208.737, 55.331)">
      <path id="Path_3036-3" data-name="Path 3036" d="M0,0A12.378,12.378,0,0,0,2.15,6.888C3.291,8.355,8.812,8.3,8.381,9.919c.337.168-7.916,3.537-6.231,9.768" transform="translate(7.676)" fill="none" stroke="#f77d0f" stroke-linecap="round" stroke-width="2"/>
      <path id="Path_3037-3" data-name="Path 3037" d="M5.435,0H0" transform="translate(0 10.87)" fill="none" stroke="#f77d0f" stroke-linecap="round" stroke-width="2"/>
    </g>
  </g>
</svg>
