<svg width="16" height="16" viewBox="0 0 16 16" fill="none" xmlns="http://www.w3.org/2000/svg">
<path d="M2.1 10.7V11.2C2.1 12.2494 2.95064 13.1 4 13.1C5.04936 13.1 5.9 12.2494 5.9 11.2V10.7H6.4H9.6H10.1V11.2C10.1 12.2494 10.9506 13.1 12 13.1C13.0494 13.1 13.9 12.2494 13.9 11.2V10.7H14.4H15.2C15.3656 10.7 15.5 10.5656 15.5 10.4V7.63449C15.5 7.47097 15.4427 7.31243 15.3379 7.18635L2.1 10.7ZM2.1 10.7H1.6H0.8C0.634392 10.7 0.5 10.5656 0.5 10.4V3.19999C0.5 3.03439 0.634392 2.89999 0.8 2.89999H11.4379C11.4379 2.89999 11.438 2.89999 11.438 2.89999C11.5406 2.90002 11.6419 2.9226 11.7348 2.96611C11.8277 3.00963 11.9099 3.07304 11.9756 3.15185C11.9757 3.15186 11.9757 3.15187 11.9757 3.15189L15.3376 7.18603L2.1 10.7ZM1.1 6.39999V6.89999H1.6H4H4.5V6.39999V3.99999V3.49999H4H1.6H1.1V3.99999V6.39999ZM8 6.89999H8.5V6.39999V3.99999V3.49999H8H5.6H5.1V3.99999V6.39999V6.89999H5.6H8ZM9.1 6.39999V6.89999H9.6H13.2505H14.318L13.6346 6.0799L11.6346 3.6799L11.4847 3.49999H11.2505H9.6H9.1V3.99999V6.39999ZM2.3 11.2C2.3 12.1389 3.06111 12.9 4 12.9C4.93889 12.9 5.7 12.1389 5.7 11.2C5.7 10.2611 4.93889 9.49999 4 9.49999C3.06111 9.49999 2.3 10.2611 2.3 11.2ZM10.3 11.2C10.3 12.1389 11.0611 12.9 12 12.9C12.9389 12.9 13.7 12.1389 13.7 11.2C13.7 10.2611 12.9389 9.49999 12 9.49999C11.0611 9.49999 10.3 10.2611 10.3 11.2Z" stroke="#747476"/>
</svg>
