<svg xmlns="http://www.w3.org/2000/svg" width="20.988" height="18.065" viewBox="0 0 20.988 18.065">
  <g id="Group_390" data-name="Group 390" transform="translate(0.75 0.75)" >
    <path id="Path_367" data-name="Path 367" d="M12.846,9H7" transform="translate(-2.128 -3.641)" fill="none" stroke="#f77d0f" stroke-linecap="round" stroke-linejoin="round" stroke-width="1.5"/>
    <path id="Path_368" data-name="Path 368" d="M21.869,10.944v2.007a1,1,0,0,1-.974.994h-1.91a2.078,2.078,0,0,1-2.1-1.822A2.008,2.008,0,0,1,18.868,9.95h2.027A1,1,0,0,1,21.869,10.944Z" transform="translate(-2.381 -3.665)" fill="none" stroke="#f77d0f" stroke-linecap="round" stroke-linejoin="round" stroke-width="1.5"/>
    <path id="Path_369" data-name="Path 369" d="M17.084,10.37a1.957,1.957,0,0,0-.585,1.588,2.078,2.078,0,0,0,2.1,1.822h1.91v1.413a4.6,4.6,0,0,1-4.872,4.872H6.872A4.6,4.6,0,0,1,2,15.193V8.372A4.535,4.535,0,0,1,6.083,3.558,5.186,5.186,0,0,1,6.872,3.5h8.77a4.456,4.456,0,0,1,.731.049,4.545,4.545,0,0,1,4.141,4.823V9.785H18.487A1.942,1.942,0,0,0,17.084,10.37Z" transform="translate(-2 -3.5)" fill="none" stroke="#f77d0f" stroke-linecap="round" stroke-linejoin="round" stroke-width="1.5"/>
  </g>
</svg>
