<svg xmlns="http://www.w3.org/2000/svg" xmlns:xlink="http://www.w3.org/1999/xlink" width="11.223" height="18.278" viewBox="0 0 11.223 18.278">
  <defs>
    <clipPath id="clip-path">
      <rect id="Rectangle_122" data-name="Rectangle 122" width="11.223" height="18.278" fill="none"/>
    </clipPath>
  </defs>
  <g id="Group_789" data-name="Group 789" transform="translate(0 0)">
    <g id="Group_788" data-name="Group 788" transform="translate(0 0)" clip-path="url(#clip-path)">
      <path id="Path_3127" data-name="Path 3127" d="M8.669,18.278a.887.887,0,0,1-.679-1.456A11.971,11.971,0,0,0,7.938,1.464a.884.884,0,0,1,.045-1.2l0,0A.887.887,0,0,1,8.619,0a.875.875,0,0,1,.67.309,13.741,13.741,0,0,1,.073,17.642.9.9,0,0,1-.693.327" transform="translate(-1.308 0)" fill="#fff"/>
      <path id="Path_3128" data-name="Path 3128" d="M4.833,15.74a.887.887,0,0,1-.71-1.415,7.532,7.532,0,0,0-.047-9.066.89.89,0,0,1,.712-1.427.866.866,0,0,1,.694.34,9.312,9.312,0,0,1,.074,11.2A.893.893,0,0,1,4.833,15.74Z" transform="translate(-0.659 -0.649)" fill="#fff"/>
      <path id="Path_3129" data-name="Path 3129" d="M.946,13.185a.832.832,0,0,1-.591-.246l-.066-.066a.855.855,0,0,1-.143-1A3.032,3.032,0,0,0,.1,9,.858.858,0,0,1,.258,7.985l.052-.053a.844.844,0,0,1,.6-.248.821.821,0,0,1,.725.419A4.852,4.852,0,0,1,1.7,12.729a.852.852,0,0,1-.754.456" transform="translate(0 -1.301)" fill="#fff"/>
    </g>
  </g>
</svg>
